<?xml version="1.0" encoding="UTF-8" standalone="no"?>
<svg
   xmlns:dc="http://purl.org/dc/elements/1.1/"
   xmlns:cc="http://creativecommons.org/ns#"
   xmlns:rdf="http://www.w3.org/1999/02/22-rdf-syntax-ns#"
   xmlns:svg="http://www.w3.org/2000/svg"
   xmlns="http://www.w3.org/2000/svg"
   xml:space="preserve"
   viewBox="0 0 5 8.5741967"
   height="8.5741968"
   width="5"
   y="0px"
   x="0px"
   id="Capa_1"
   version="1.1"><metadata
   id="metadata15465"><rdf:RDF><cc:Work
       rdf:about=""><dc:format>image/svg+xml</dc:format><dc:type
         rdf:resource="http://purl.org/dc/dcmitype/StillImage" /><dc:title></dc:title></cc:Work></rdf:RDF></metadata><defs
   id="defs15463" />
<g
   transform="matrix(0.03009166,0,0,0.03009166,-1.7871136,0)"
   style="fill:#cdcdcd;fill-opacity:1"
   id="g15427">
	<path
   style="fill:#cdcdcd;fill-opacity:1"
   id="path15429"
   d="M 222.701,135.9 89.652,2.857 C 87.748,0.955 85.557,0 83.084,0 80.61,0 78.42,0.955 76.517,2.857 L 62.244,17.133 c -1.906,1.903 -2.855,4.089 -2.855,6.567 0,2.478 0.949,4.664 2.855,6.567 L 174.448,142.471 62.244,254.677 c -1.906,1.903 -2.855,4.093 -2.855,6.564 0,2.477 0.949,4.667 2.855,6.57 l 14.274,14.271 c 1.903,1.905 4.093,2.854 6.567,2.854 2.473,0 4.663,-0.951 6.567,-2.854 L 222.694,149.038 c 1.902,-1.902 2.854,-4.093 2.854,-6.567 0,-2.474 -0.945,-4.664 -2.847,-6.571 z" />
</g>
<g
   transform="translate(-59.389,-276.3618)"
   id="g15431">
</g>
<g
   transform="translate(-59.389,-276.3618)"
   id="g15433">
</g>
<g
   transform="translate(-59.389,-276.3618)"
   id="g15435">
</g>
<g
   transform="translate(-59.389,-276.3618)"
   id="g15437">
</g>
<g
   transform="translate(-59.389,-276.3618)"
   id="g15439">
</g>
<g
   transform="translate(-59.389,-276.3618)"
   id="g15441">
</g>
<g
   transform="translate(-59.389,-276.3618)"
   id="g15443">
</g>
<g
   transform="translate(-59.389,-276.3618)"
   id="g15445">
</g>
<g
   transform="translate(-59.389,-276.3618)"
   id="g15447">
</g>
<g
   transform="translate(-59.389,-276.3618)"
   id="g15449">
</g>
<g
   transform="translate(-59.389,-276.3618)"
   id="g15451">
</g>
<g
   transform="translate(-59.389,-276.3618)"
   id="g15453">
</g>
<g
   transform="translate(-59.389,-276.3618)"
   id="g15455">
</g>
<g
   transform="translate(-59.389,-276.3618)"
   id="g15457">
</g>
<g
   transform="translate(-59.389,-276.3618)"
   id="g15459">
</g>
</svg>