<?xml version="1.0" encoding="UTF-8" standalone="no"?>
<svg
   xmlns:dc="http://purl.org/dc/elements/1.1/"
   xmlns:cc="http://creativecommons.org/ns#"
   xmlns:rdf="http://www.w3.org/1999/02/22-rdf-syntax-ns#"
   xmlns:svg="http://www.w3.org/2000/svg"
   xmlns="http://www.w3.org/2000/svg"
   height="18"
   width="18"
   xml:space="preserve"
   viewBox="0 0 18 17.999999"
   y="0px"
   x="0px"
   id="Layer_1"
   version="1.1"><metadata
   id="metadata14641"><rdf:RDF><cc:Work
       rdf:about=""><dc:format>image/svg+xml</dc:format><dc:type
         rdf:resource="http://purl.org/dc/dcmitype/StillImage" /><dc:title></dc:title></cc:Work></rdf:RDF></metadata><defs
   id="defs14639" />
<style
   id="style14634"
   type="text/css">
	.st0{fill:#222222;}
</style>
<path
   style="fill:#222222"
   d="M 8.8,0 C 8.1,0 7.5,0.1 6.8,0.2 l 0,8.8 c 0,1.1 0.9,2 2,2 1.1,0 2,-0.9 2,-2 C 10.8,8 10,7.1 9,7 L 9,5.4 c 1.9,0.1 3.4,1.6 3.4,3.5 0,1.9 -1.6,3.5 -3.5,3.5 C 7,12.4 5.4,10.8 5.4,8.9 l 0,-8.3 C 5.2,0.7 5,0.8 4.7,0.9 l 0,8 c 0,2.3 1.9,4.2 4.2,4.2 2.3,0 4.2,-1.9 4.2,-4.2 0,-2.3 -1.8,-4.1 -4,-4.2 l 0,-1.6 c 3.1,0.1 5.6,2.6 5.6,5.7 0,3.2 -2.6,5.7 -5.7,5.7 -3.2,0 -5.7,-2.6 -5.7,-5.7 l 0,-6.7 C 1.3,3.8 0,6.2 0,9 c 0,5 4,9 9,9 5,0 9,-4 9,-9 C 18,4 13.8,0 8.8,0 Z"
   class="st0"
   id="graph_3_" />
</svg>