<?xml version="1.0" encoding="utf-8"?>
<!-- Generator: Adobe Illustrator 22.0.1, SVG Export Plug-In . SVG Version: 6.00 Build 0)  -->
<svg version="1.1" id="Capa_1" xmlns="http://www.w3.org/2000/svg" xmlns:xlink="http://www.w3.org/1999/xlink" x="0px" y="0px"
	 viewBox="0 0 50.3 51" enable-background="new 0 0 50.3 51" xml:space="preserve">
<g>
	<path fill="none" stroke="#E44838" stroke-miterlimit="10" d="M0,0.5h5.1c1.4,0,2.6,0.9,3,2.3l7.5,28.7c0.4,1.7,0.3,3.5-0.4,5.2
		l-1,2.3c-0.8,1.8,0.5,3.8,2.5,3.8h28.1"/>
	<path fill="none" stroke="#E44838" stroke-miterlimit="10" d="M10.9,13.5h37.7c0.7,0,1.3,0.7,1.1,1.4l-3.5,17.9l-30.6,2.3"/>
	<line fill="none" stroke="#E44838" stroke-miterlimit="10" x1="19.9" y1="15.7" x2="19.9" y2="31.1"/>
	<line fill="none" stroke="#E44838" stroke-miterlimit="10" x1="25.3" y1="15.7" x2="25.3" y2="30.6"/>
	<line fill="none" stroke="#E44838" stroke-miterlimit="10" x1="30.8" y1="15.7" x2="30.8" y2="30.6"/>
	<line fill="none" stroke="#E44838" stroke-miterlimit="10" x1="36.3" y1="15.7" x2="36.3" y2="30.2"/>
	<line fill="none" stroke="#E44838" stroke-miterlimit="10" x1="41.8" y1="15.7" x2="41.8" y2="29.8"/>
	<line fill="none" stroke="#E44838" stroke-miterlimit="10" x1="46.2" y1="17.5" x2="14.9" y2="17.5"/>
	<line fill="none" stroke="#E44838" stroke-miterlimit="10" x1="44.7" y1="23" x2="16.4" y2="23"/>
	<line fill="none" stroke="#E44838" stroke-miterlimit="10" x1="43.8" y1="28.5" x2="18.1" y2="28.5"/>
	<circle fill="none" stroke="#E44838" stroke-miterlimit="10" cx="19.4" cy="47.5" r="3"/>
	<circle fill="none" stroke="#E44838" stroke-miterlimit="10" cx="39.8" cy="47.5" r="3"/>
</g>
</svg>
