<?xml version="1.0" encoding="utf-8"?>
<!-- Generator: Adobe Illustrator 22.0.1, SVG Export Plug-In . SVG Version: 6.00 Build 0)  -->
<svg version="1.1" id="Capa_1" xmlns="http://www.w3.org/2000/svg" xmlns:xlink="http://www.w3.org/1999/xlink" x="0px" y="0px"
	 viewBox="0 0 51 51" enable-background="new 0 0 51 51" xml:space="preserve">
<g>
	<path fill="none" stroke="#E44838" stroke-miterlimit="10" d="M22.6,43.1l-4.4,4.4c-4,4-10.6,4-14.6,0l0,0c-4-4-4-10.6,0-14.6
		l4.2-4.2"/>
	<path fill="none" stroke="#E44838" stroke-miterlimit="10" d="M24.2,29.4c1.4,2.5,1,5.7-1.1,7.8l-6.2,6.2c-2.5,2.5-6.7,2.5-9.3,0
		l0,0c-2.5-2.5-2.5-6.7,0-9.3l6.2-6.2c2.1-2.1,5.3-2.5,7.8-1.1"/>
	<path fill="none" stroke="#E44838" stroke-miterlimit="10" d="M22.4,31.2c1.4,2.5,1,5.7-1.1,7.8"/>
	<path fill="none" stroke="#E44838" stroke-miterlimit="10" d="M12,29.8c2.1-2.1,5.3-2.5,7.8-1.1"/>
	<path fill="none" stroke="#E44838" stroke-miterlimit="10" d="M26.6,27c2.8,4,2.4,9.6-1.2,13.2l-5.7,5.7c-4,4-10.6,4-14.6,0l0,0
		c-4-4-4-10.6,0-14.6l5.7-5.7c3.6-3.6,9.2-4,13.3-1.2"/>
	<path fill="none" stroke="#E44838" stroke-miterlimit="10" d="M24.4,24.1c-2.8-4-2.4-9.7,1.2-13.3l4.2-4.2"/>
	<path fill="none" stroke="#E44838" stroke-miterlimit="10" d="M44.6,21l-4.4,4.4c-3.6,3.6-9.2,4-13.2,1.2"/>
	<path fill="none" stroke="#E44838" stroke-miterlimit="10" d="M28.6,19.9c-1.4-2.5-1-5.7,1.1-7.8L35.9,6c2.5-2.5,6.7-2.5,9.3,0l0,0
		c2.5,2.5,2.5,6.7,0,9.3l-6.2,6.2c-2.1,2.1-5.3,2.5-7.8,1.1"/>
	<path fill="none" stroke="#E44838" stroke-miterlimit="10" d="M34.1,7.7c2.1-2.1,5.3-2.5,7.8-1.1c0.5,0.3,1,0.7,1.5,1.1l0,0
		c0.4,0.4,0.8,0.9,1.1,1.4c1.4,2.5,1,5.7-1.1,7.8"/>
	<path fill="none" stroke="#E44838" stroke-miterlimit="10" d="M26,22.5c-2.8-4-2.4-9.7,1.2-13.3l5.7-5.7c4-4,10.6-4,14.6,0l0,0
		c4,4,4,10.6,0,14.6l-5.7,5.7c-3.6,3.6-9.2,4-13.2,1.2"/>
	<path fill="none" stroke="#E44838" stroke-miterlimit="10" d="M31.8,21.8L21.6,32c-0.7,0.7-1.9,0.7-2.6,0l0,0
		c-0.7-0.7-0.7-1.9,0-2.6l10.2-10.2c0.7-0.7,1.9-0.7,2.6,0l0,0C32.5,19.9,32.5,21.1,31.8,21.8z"/>
</g>
</svg>
