<?xml version="1.0" encoding="utf-8"?>
<!-- Generator: Adobe Illustrator 22.0.1, SVG Export Plug-In . SVG Version: 6.00 Build 0)  -->
<svg version="1.1" id="Layer_1" xmlns="http://www.w3.org/2000/svg" xmlns:xlink="http://www.w3.org/1999/xlink" x="0px" y="0px"
	 viewBox="0 0 91.6 75.1" enable-background="new 0 0 91.6 75.1" xml:space="preserve">
<g>
	
		<circle fill="#FFFFFF" stroke="#222222" stroke-linecap="round" stroke-linejoin="round" stroke-miterlimit="10" cx="61" cy="44.4" r="30.1"/>
	
		<circle fill="#F9F9FA" stroke="#222222" stroke-linecap="round" stroke-linejoin="round" stroke-miterlimit="10" cx="61" cy="44.4" r="25.5"/>
	<polyline fill="none" stroke="#222222" stroke-linecap="round" stroke-linejoin="round" stroke-miterlimit="10" points="7.4,6.4 
		0.5,6.4 0.5,56.8 11.9,68.2 38.9,68.2 	"/>
	<polyline fill="none" stroke="#222222" stroke-linecap="round" stroke-linejoin="round" stroke-miterlimit="10" points="0.5,60.5 
		0.5,70.9 43,70.9 	"/>
	
		<line fill="none" stroke="#222222" stroke-linecap="round" stroke-linejoin="round" stroke-miterlimit="10" x1="0.5" y1="74" x2="47.5" y2="74"/>
	
		<line fill="none" stroke="#222222" stroke-linecap="round" stroke-linejoin="round" stroke-miterlimit="10" x1="40.4" y1="19.9" x2="0.5" y2="19.9"/>
	<polyline fill="none" stroke="#222222" stroke-linecap="round" stroke-linejoin="round" stroke-miterlimit="10" points="66.2,12.5 
		66.2,6.4 59.1,6.4 	"/>
	
		<line fill="none" stroke="#222222" stroke-linecap="round" stroke-linejoin="round" stroke-miterlimit="10" x1="50.5" y1="6.4" x2="44.6" y2="6.4"/>
	
		<line fill="none" stroke="#222222" stroke-linecap="round" stroke-linejoin="round" stroke-miterlimit="10" x1="36.6" y1="6.4" x2="30.1" y2="6.4"/>
	
		<line fill="none" stroke="#222222" stroke-linecap="round" stroke-linejoin="round" stroke-miterlimit="10" x1="22.1" y1="6.4" x2="16" y2="6.4"/>
	<path fill="none" stroke="#222222" stroke-linecap="round" stroke-linejoin="round" stroke-miterlimit="10" d="M11.6,12.5
		L11.6,12.5c-0.8,0-1.5-0.7-1.5-1.5V2c0-0.8,0.7-1.5,1.5-1.5h0c0.8,0,1.5,0.7,1.5,1.5v9C13.1,11.9,12.5,12.5,11.6,12.5z"/>
	<path fill="none" stroke="#222222" stroke-linecap="round" stroke-linejoin="round" stroke-miterlimit="10" d="M26.1,12.5
		L26.1,12.5c-0.8,0-1.5-0.7-1.5-1.5V2c0-0.8,0.7-1.5,1.5-1.5h0c0.8,0,1.5,0.7,1.5,1.5v9C27.6,11.9,27,12.5,26.1,12.5z"/>
	<path fill="none" stroke="#222222" stroke-linecap="round" stroke-linejoin="round" stroke-miterlimit="10" d="M40.4,12.5
		L40.4,12.5c-0.8,0-1.5-0.7-1.5-1.5V2c0-0.8,0.7-1.5,1.5-1.5h0c0.8,0,1.5,0.7,1.5,1.5v9C41.9,11.9,41.2,12.5,40.4,12.5z"/>
	<path fill="none" stroke="#222222" stroke-linecap="round" stroke-linejoin="round" stroke-miterlimit="10" d="M54.7,12.5
		L54.7,12.5c-0.8,0-1.5-0.7-1.5-1.5V2c0-0.8,0.7-1.5,1.5-1.5h0c0.8,0,1.5,0.7,1.5,1.5v9C56.2,11.9,55.5,12.5,54.7,12.5z"/>
	
		<line fill="none" stroke="#222222" stroke-linecap="round" stroke-linejoin="round" stroke-miterlimit="10" x1="5" y1="16.8" x2="10.1" y2="16.8"/>
	
		<line fill="none" stroke="#222222" stroke-linecap="round" stroke-linejoin="round" stroke-miterlimit="10" x1="13.1" y1="16.8" x2="18.3" y2="16.8"/>
	
		<line fill="none" stroke="#222222" stroke-linecap="round" stroke-linejoin="round" stroke-miterlimit="10" x1="21.7" y1="16.8" x2="26.8" y2="16.8"/>
	
		<line fill="none" stroke="#222222" stroke-linecap="round" stroke-linejoin="round" stroke-miterlimit="10" x1="30.5" y1="16.8" x2="35.6" y2="16.8"/>
	
		<line fill="none" stroke="#222222" stroke-linecap="round" stroke-linejoin="round" stroke-miterlimit="10" x1="39.1" y1="16.8" x2="44.2" y2="16.8"/>
	<g>
		<polyline fill="none" stroke="#222222" stroke-linecap="round" stroke-linejoin="round" stroke-miterlimit="10" points="
			30.5,29.5 30.5,24 36,24 		"/>
		<polyline fill="none" stroke="#222222" stroke-linecap="round" stroke-linejoin="round" stroke-miterlimit="10" points="
			34.9,63.7 30.5,63.7 30.5,58.2 		"/>
	</g>
	<g>
		<path fill="#E44838" stroke="#222222" d="M55.6,50c1.1,0,2.1,0.6,2.7,1.5c0.5,0.8,1.5,1.2,2.7,1.2c1.9,0,3-1.5,3.1-3.3
			c0-4-4-3.9-7-3.7v-1l3.7-7.7h-4.9c-1.7,0-3.2-1.4-3.2-3.2v0c0-1.7,1.4-3.2,3.2-3.2h14.5v1l-5.1,9.4c4.4,1.1,5.7,4.7,5.7,8.3
			c0,4.7-3.3,9.7-9.8,9.7c-2.1,0-3.6-0.4-5-1.2c-1.3-0.7-2.5-1.8-3.3-3.2C51.7,52.6,53.3,50,55.6,50L55.6,50z"/>
	</g>
	<g>
		
			<rect x="22.1" y="24" fill="none" stroke="#222222" stroke-linecap="round" stroke-linejoin="round" stroke-miterlimit="10" width="5.5" height="5.5"/>
		
			<rect x="22.1" y="32.5" fill="none" stroke="#222222" stroke-linecap="round" stroke-linejoin="round" stroke-miterlimit="10" width="5.5" height="5.5"/>
		
			<rect x="22.1" y="41.1" fill="none" stroke="#222222" stroke-linecap="round" stroke-linejoin="round" stroke-miterlimit="10" width="5.5" height="5.5"/>
		
			<rect x="22.1" y="49.7" fill="none" stroke="#222222" stroke-linecap="round" stroke-linejoin="round" stroke-miterlimit="10" width="5.5" height="5.5"/>
		
			<rect x="22.1" y="58.2" fill="none" stroke="#222222" stroke-linecap="round" stroke-linejoin="round" stroke-miterlimit="10" width="5.5" height="5.5"/>
	</g>
	
		<rect x="13.4" y="24" fill="none" stroke="#222222" stroke-linecap="round" stroke-linejoin="round" stroke-miterlimit="10" width="5.5" height="5.5"/>
	
		<rect x="13.4" y="32.5" fill="#E44838" stroke="#222222" stroke-linecap="round" stroke-linejoin="round" stroke-miterlimit="10" width="5.5" height="5.5"/>
	
		<rect x="13.4" y="41.1" fill="none" stroke="#222222" stroke-linecap="round" stroke-linejoin="round" stroke-miterlimit="10" width="5.5" height="5.5"/>
	
		<rect x="13.4" y="49.7" fill="none" stroke="#222222" stroke-linecap="round" stroke-linejoin="round" stroke-miterlimit="10" width="5.5" height="5.5"/>
	
		<rect x="13.4" y="58.2" fill="none" stroke="#222222" stroke-linecap="round" stroke-linejoin="round" stroke-miterlimit="10" width="5.5" height="5.5"/>
	<g>
		
			<rect x="4.8" y="24" fill="none" stroke="#222222" stroke-linecap="round" stroke-linejoin="round" stroke-miterlimit="10" width="5.5" height="5.5"/>
		
			<rect x="4.8" y="32.5" fill="none" stroke="#222222" stroke-linecap="round" stroke-linejoin="round" stroke-miterlimit="10" width="5.5" height="5.5"/>
		
			<rect x="4.8" y="41.1" fill="none" stroke="#222222" stroke-linecap="round" stroke-linejoin="round" stroke-miterlimit="10" width="5.5" height="5.5"/>
		<polyline fill="none" stroke="#222222" stroke-linecap="round" stroke-linejoin="round" stroke-miterlimit="10" points="4.8,54.2 
			4.8,49.7 10.3,49.7 10.3,54.2 		"/>
	</g>
	<polyline fill="none" stroke="#222222" stroke-linecap="round" stroke-linejoin="round" stroke-miterlimit="10" points="0.5,56.7 
		11.7,56.7 11.7,68 	"/>
</g>
</svg>
