<?xml version="1.0" encoding="UTF-8" standalone="no"?>
<!-- Generator: Adobe Illustrator 22.0.1, SVG Export Plug-In . SVG Version: 6.00 Build 0)  -->

<svg
   xmlns:dc="http://purl.org/dc/elements/1.1/"
   xmlns:cc="http://creativecommons.org/ns#"
   xmlns:rdf="http://www.w3.org/1999/02/22-rdf-syntax-ns#"
   xmlns:svg="http://www.w3.org/2000/svg"
   xmlns="http://www.w3.org/2000/svg"
   xmlns:sodipodi="http://sodipodi.sourceforge.net/DTD/sodipodi-0.dtd"
   xmlns:inkscape="http://www.inkscape.org/namespaces/inkscape"
   version="1.1"
   id="Capa_1"
   x="0px"
   y="0px"
   viewBox="0 0 12.7 15.5"
   enable-background="new 0 0 12.7 15.5"
   xml:space="preserve"
   inkscape:version="0.91 r13725"
   sodipodi:docname="folder.svg"
   width="12.7"
   height="15.5"><metadata
   id="metadata72482"><rdf:RDF><cc:Work
       rdf:about=""><dc:format>image/svg+xml</dc:format><dc:type
         rdf:resource="http://purl.org/dc/dcmitype/StillImage" /><dc:title></dc:title></cc:Work></rdf:RDF></metadata><defs
   id="defs72480" /><sodipodi:namedview
   pagecolor="#ffffff"
   bordercolor="#666666"
   borderopacity="1"
   objecttolerance="10"
   gridtolerance="10"
   guidetolerance="10"
   inkscape:pageopacity="0"
   inkscape:pageshadow="2"
   inkscape:window-width="1920"
   inkscape:window-height="1018"
   id="namedview72478"
   showgrid="false"
   inkscape:zoom="15.225806"
   inkscape:cx="1.7853813"
   inkscape:cy="7.75"
   inkscape:window-x="-8"
   inkscape:window-y="-8"
   inkscape:window-maximized="1"
   inkscape:current-layer="Capa_1"
   fit-margin-top="0"
   fit-margin-left="0"
   fit-margin-right="0"
   fit-margin-bottom="0" />
<g
   id="g72474"
   style="fill:#555555;fill-opacity:1">
	<path
   d="m 11.3,14.1 -9.9,0 0,-12.7 6.1,0 0,3.8 3.8,0 0,8.4 1.4,0 0,-9.4 L 8.5,0 0.4,0 C 0.2,0 0,0.2 0,0.4 l 0,14.7 c 0,0.2 0.2,0.4 0.4,0.4 l 11.9,0 c 0.2,0 0.4,-0.2 0.4,-0.4 l 0,-2.4 -1.4,0 0,1.4 z M 8.9,3.8 l 0,-1.3 1.3,1.3 -1.3,0 z"
   id="path72476"
   style="fill:#555555;fill-opacity:1"
   inkscape:connector-curvature="0" />
</g>
</svg>