<?xml version="1.0" encoding="UTF-8" standalone="no"?>
<svg
   xmlns:dc="http://purl.org/dc/elements/1.1/"
   xmlns:cc="http://creativecommons.org/ns#"
   xmlns:rdf="http://www.w3.org/1999/02/22-rdf-syntax-ns#"
   xmlns:svg="http://www.w3.org/2000/svg"
   xmlns="http://www.w3.org/2000/svg"
   height="16.003229"
   width="16"
   version="1.1"
   id="svg15430"
   viewBox="0 0 16 16.003229"
   role="img"
   class="svg-inline--fa fa-globe fa-w-16"
   data-icon="globe"
   data-prefix="fas"
   focusable="false"
   aria-hidden="true">
  <metadata
     id="metadata15438">
    <rdf:RDF>
      <cc:Work
         rdf:about="">
        <dc:format>image/svg+xml</dc:format>
        <dc:type
           rdf:resource="http://purl.org/dc/dcmitype/StillImage" />
        <dc:title></dc:title>
      </cc:Work>
    </rdf:RDF>
  </metadata>
  <defs
     id="defs15436" />
  <path
     style="fill:#dbdce0;fill-opacity:1"
     id="path15432"
     d="M 10.857028,4.90422 C 10.389191,2.02299 9.2857431,0 8.0016132,0 6.7174834,0 5.6140351,2.02299 5.1461988,4.90422 l 5.7108292,0 z m -5.9528134,3.0974 c 0,0.71627 0.038717,1.40351 0.106473,2.06493 l 5.9786244,0 c 0.06776,-0.66142 0.106473,-1.34866 0.106473,-2.06493 0,-0.71628 -0.03872,-1.40351 -0.106473,-2.06494 l -5.9786244,0 C 4.9429316,6.59811 4.9042146,7.28534 4.9042146,8.00162 Z M 15.38052,4.90422 C 14.457754,2.71345 12.589635,1.01956 10.282718,0.33556 c 0.787256,1.09054 1.329301,2.7328 1.613229,4.56866 l 3.484573,0 z M 5.7172817,0.33556 C 3.4135914,1.01956 1.5422464,2.71345 0.62270619,4.90422 l 3.48457351,0 C 4.3879814,3.06836 4.9300262,1.4261 5.7172817,0.33556 Z m 10.0084693,5.60112 -3.700746,0 c 0.06776,0.67756 0.106473,1.37125 0.106473,2.06494 0,0.69369 -0.03872,1.38737 -0.106473,2.06493 l 3.69752,0 C 15.89998,9.40513 16,8.71789 16,8.00162 16,7.28534 15.89998,6.59811 15.725751,5.93668 Z M 3.8717483,8.00162 c 0,-0.69369 0.038717,-1.38738 0.1064731,-2.06494 l -3.7007461,0 C 0.10324662,6.59811 0,7.28534 0,8.00162 0,8.71789 0.10324662,9.40513 0.2774753,10.06655 l 3.6975197,0 C 3.910466,9.38899 3.8717483,8.69531 3.8717483,8.00162 Z m 1.2744505,3.0974 c 0.4678363,2.88122 1.5712846,4.90421 2.8554144,4.90421 1.2841299,0 2.3875778,-2.02299 2.8554148,-4.90421 l -5.7108292,0 z m 5.1397462,4.56866 c 2.30369,-0.68401 4.175035,-2.3779 5.097802,-4.56866 l -3.484574,0 c -0.283928,1.83585 -0.825973,3.47812 -1.613228,4.56866 z M 0.62270619,11.09902 C 1.5454729,13.28978 3.4135914,14.98367 5.7205082,15.66768 4.9332527,14.57714 4.3912079,12.93487 4.1072797,11.09902 l -3.48457351,0 z" />
</svg>
