<?xml version="1.0" encoding="UTF-8" standalone="no"?>
<svg
   xmlns:dc="http://purl.org/dc/elements/1.1/"
   xmlns:cc="http://creativecommons.org/ns#"
   xmlns:rdf="http://www.w3.org/1999/02/22-rdf-syntax-ns#"
   xmlns:svg="http://www.w3.org/2000/svg"
   xmlns="http://www.w3.org/2000/svg"
   height="13.9969"
   width="14.000002"
   version="1.1"
   id="svg25924"
   viewBox="0 0 14.000002 13.9969"
   role="img"
   class="svg-inline--fa fa-instagram fa-w-14"
   data-icon="instagram"
   data-prefix="fab"
   focusable="false"
   aria-hidden="true">
  <metadata
     id="metadata25932">
    <rdf:RDF>
      <cc:Work
         rdf:about="">
        <dc:format>image/svg+xml</dc:format>
        <dc:type
           rdf:resource="http://purl.org/dc/dcmitype/StillImage" />
        <dc:title></dc:title>
      </cc:Work>
    </rdf:RDF>
  </metadata>
  <defs
     id="defs25930" />
  <path
     style="fill:#ffffff"
     id="path25926"
     d="m 7.0015616,3.40983 c -1.9863915,0 -3.5886224,1.60223 -3.5886224,3.58862 0,1.98639 1.6022309,3.58862 3.5886224,3.58862 1.9863916,0 3.5886224,-1.60223 3.5886224,-3.58862 0,-1.98639 -1.6022308,-3.58862 -3.5886224,-3.58862 z m 0,5.92169 c -1.2836586,0 -2.333073,-1.04629 -2.333073,-2.33307 0,-1.28678 1.0462911,-2.33307 2.333073,-2.33307 1.286782,0 2.3330731,1.04629 2.3330731,2.33307 0,1.28678 -1.0494144,2.33307 -2.3330731,2.33307 z M 11.57401,3.26304 c 0,0.46536 -0.374791,0.83703 -0.837033,0.83703 -0.465365,0 -0.8370328,-0.37479 -0.8370328,-0.83703 0,-0.46225 0.3747908,-0.83704 0.8370328,-0.83704 0.462242,0 0.837033,0.37479 0.837033,0.83704 z m 2.376799,0.84952 C 13.897709,2.99131 13.641606,1.99812 12.82019,1.17982 12.001896,0.36153 11.008701,0.10542 9.8874512,0.0492 8.7318461,-0.0164 5.2681539,-0.0164 4.1125488,0.0492 2.9944228,0.1023 2.001227,0.35841 1.1798104,1.1767 0.35839375,1.99499 0.10540993,2.98819 0.0491913,4.10944 c -0.0655884,1.1556 -0.0655884,4.6193 0,5.7749 0.05309537,1.12125 0.30920245,2.11445 1.1306191,2.93274 0.8214166,0.81829 1.8114891,1.0744 2.9327384,1.13062 1.1556051,0.0656 4.6192973,0.0656 5.7749024,0 1.1212498,-0.0531 2.1144448,-0.3092 2.9327388,-1.13062 0.818293,-0.81829 1.0744,-1.81149 1.130619,-2.93274 0.06559,-1.1556 0.06559,-4.61617 0,-5.77178 z m -1.492917,7.01171 c -0.243614,0.61216 -0.715226,1.08377 -1.330508,1.33051 -0.921361,0.36542 -3.1076406,0.28109 -4.1258224,0.28109 -1.0181818,0 -3.207585,0.0812 -4.1258226,-0.28109 C 2.2635806,12.21117 1.7919688,11.73956 1.5452315,11.12427 1.1798104,10.20291 1.2641383,8.01663 1.2641383,6.99845 c 0,-1.01818 -0.081205,-3.20758 0.2810932,-4.12582 C 1.7888455,2.26047 2.2604573,1.78886 2.875739,1.54212 3.7970998,1.1767 5.9833798,1.26103 7.0015616,1.26103 c 1.0181818,0 3.2075854,-0.0812 4.1258224,0.28109 0.612159,0.24362 1.08377,0.71523 1.330508,1.33051 0.365421,0.92136 0.281093,3.10764 0.281093,4.12582 0,1.01818 0.08433,3.20759 -0.281093,4.12582 z" />
</svg>
