<?xml version="1.0" encoding="UTF-8" standalone="no"?>
<svg
   xmlns:dc="http://purl.org/dc/elements/1.1/"
   xmlns:cc="http://creativecommons.org/ns#"
   xmlns:rdf="http://www.w3.org/1999/02/22-rdf-syntax-ns#"
   xmlns:svg="http://www.w3.org/2000/svg"
   xmlns="http://www.w3.org/2000/svg"
   height="17.995939"
   width="18.000002"
   version="1.1"
   id="svg74600"
   viewBox="0 0 18.000002 17.995939"
   role="img"
   class="svg-inline--fa fa-instagram fa-w-14"
   data-icon="instagram"
   data-prefix="fab"
   focusable="false"
   aria-hidden="true">
  <metadata
     id="metadata74608">
    <rdf:RDF>
      <cc:Work
         rdf:about="">
        <dc:format>image/svg+xml</dc:format>
        <dc:type
           rdf:resource="http://purl.org/dc/dcmitype/StillImage" />
        <dc:title></dc:title>
      </cc:Work>
    </rdf:RDF>
  </metadata>
  <defs
     id="defs74606" />
  <path
     fill="#626262"
     id="path74602"
     d="m 9.0020078,4.384025 c -2.5539319,0 -4.6139431,2.06002 -4.6139431,4.61395 0,2.55393 2.0600112,4.61394 4.6139431,4.61394 2.5539322,0 4.6139432,-2.06001 4.6139432,-4.61394 0,-2.55393 -2.060011,-4.61395 -4.6139432,-4.61395 z m 0,7.61361 c -1.6504183,0 -2.9996654,-1.34523 -2.9996654,-2.99966 0,-1.65444 1.3452315,-2.99967 2.9996654,-2.99967 1.6544342,0 2.9996652,1.34523 2.9996652,2.99967 0,1.65443 -1.349247,2.99966 -2.9996652,2.99966 z M 14.88087,4.195295 c 0,0.59833 -0.481874,1.07619 -1.076185,1.07619 -0.598327,0 -1.076185,-0.48188 -1.076185,-1.07619 0,-0.59431 0.481874,-1.07618 1.076185,-1.07618 0.594311,0 1.076185,0.48187 1.076185,1.07618 z m 3.055884,1.09225 c -0.06827,-1.44161 -0.397546,-2.71857 -1.453653,-3.77067 -1.052092,-1.05209 -2.329057,-1.38137 -3.770664,-1.45365 -1.485778,-0.0843 -5.9390962,-0.0843 -7.4248743,0 -1.4375906,0.0683 -2.7145566,0.39755 -3.7706636,1.44964 -1.05610713,1.05209 -1.38137205,2.32906 -1.45365314,3.77066 -0.08432795,1.48578 -0.08432795,5.9391 0,7.42488 0.06826547,1.4416 0.39754601,2.71857 1.45365314,3.77066 1.056107,1.05209 2.3290574,1.38137 3.7706636,1.45365 1.4857781,0.0843 5.9390963,0.0843 7.4248743,0 1.441607,-0.0683 2.718572,-0.39754 3.770664,-1.45365 1.052091,-1.05209 1.381372,-2.32906 1.453653,-3.77066 0.08433,-1.48578 0.08433,-5.93508 0,-7.42086 z m -1.919465,9.01506 c -0.313218,0.78706 -0.919576,1.39342 -1.710652,1.71065 -1.184607,0.46983 -3.995538,0.3614 -5.3046292,0.3614 -1.3090909,0 -4.1240379,0.10441 -5.3046291,-0.3614 -0.7870608,-0.31322 -1.3934189,-0.91958 -1.7106525,-1.71065 -0.4698271,-1.18461 -0.3614055,-3.99554 -0.3614055,-5.30463 0,-1.30909 -0.104406,-4.12404 0.3614055,-5.30463 0.313218,-0.78706 0.9195761,-1.39342 1.7106525,-1.71065 1.1846068,-0.46983 3.9955382,-0.36141 5.3046291,-0.36141 1.3090912,0 4.1240382,-0.10441 5.3046292,0.36141 0.787061,0.31321 1.393419,0.91957 1.710652,1.71065 0.469828,1.18461 0.361406,3.99554 0.361406,5.30463 0,1.30909 0.108422,4.12404 -0.361406,5.30463 z" />
</svg>
