<?xml version="1.0" encoding="UTF-8" standalone="no"?>
<!-- Generator: Adobe Illustrator 22.0.1, SVG Export Plug-In . SVG Version: 6.00 Build 0)  -->

<svg
   xmlns:dc="http://purl.org/dc/elements/1.1/"
   xmlns:cc="http://creativecommons.org/ns#"
   xmlns:rdf="http://www.w3.org/1999/02/22-rdf-syntax-ns#"
   xmlns:svg="http://www.w3.org/2000/svg"
   xmlns="http://www.w3.org/2000/svg"
   xmlns:sodipodi="http://sodipodi.sourceforge.net/DTD/sodipodi-0.dtd"
   xmlns:inkscape="http://www.inkscape.org/namespaces/inkscape"
   version="1.1"
   id="Layer_1"
   x="0px"
   y="0px"
   viewBox="0 0 40.096573 47.5"
   enable-background="new 0 0 282.5 47.5"
   xml:space="preserve"
   inkscape:version="0.91 r13725"
   sodipodi:docname="logo-3.svg"
   width="40.096573"
   height="47.5"><metadata
   id="metadata14681"><rdf:RDF><cc:Work
       rdf:about=""><dc:format>image/svg+xml</dc:format><dc:type
         rdf:resource="http://purl.org/dc/dcmitype/StillImage" /><dc:title></dc:title></cc:Work></rdf:RDF></metadata><defs
   id="defs14679" /><sodipodi:namedview
   pagecolor="#ffffff"
   bordercolor="#666666"
   borderopacity="1"
   objecttolerance="10"
   gridtolerance="10"
   guidetolerance="10"
   inkscape:pageopacity="0"
   inkscape:pageshadow="2"
   inkscape:window-width="1920"
   inkscape:window-height="1018"
   id="namedview14677"
   showgrid="false"
   fit-margin-top="0"
   fit-margin-left="0"
   fit-margin-right="0"
   fit-margin-bottom="0"
   inkscape:zoom="9.6920354"
   inkscape:cx="22.404372"
   inkscape:cy="26.578676"
   inkscape:window-x="-8"
   inkscape:window-y="-8"
   inkscape:window-maximized="1"
   inkscape:current-layer="Layer_1" />
<linearGradient
   id="SVGID_1_"
   gradientUnits="userSpaceOnUse"
   x1="27.0364"
   y1="31.9035"
   x2="17.2295"
   y2="46.0728"
   gradientTransform="translate(-0.00342552,0)">
	<stop
   offset="0"
   style="stop-color:#E44838"
   id="stop14622" />
	<stop
   offset="1"
   style="stop-color:#EFA23B"
   id="stop14624" />
</linearGradient>
<path
   d="m 35.696574,23.7 -11.7,0 -8.8,12.2 c -3.5,4.8 -0.1,11.6 5.9,11.6 l 0,0 c 2.3,0 4.5,-1.1 5.9,-3 l 11.4,-15.6 c 1.4,-2.2 -0.1,-5.2 -2.7,-5.2 z"
   id="path14626"
   inkscape:connector-curvature="0"
   style="fill:url(#SVGID_1_)" />
<linearGradient
   id="SVGID_2_"
   gradientUnits="userSpaceOnUse"
   x1="44.618198"
   y1="35.639099"
   x2="27.400499"
   y2="18.888901"
   gradientTransform="translate(-0.00342552,0)">
	<stop
   offset="0"
   style="stop-color:#2D2E8D"
   id="stop14629" />
	<stop
   offset="1"
   style="stop-color:#289ED8"
   id="stop14631" />
</linearGradient>
<path
   d="m 26.896574,3 c -1.4,-1.9 -3.6,-3 -5.9,-3 l 0,0 c -6,0 -9.4,6.8 -5.9,11.6 l 8.9,12.2 6.9,9.4 c 0.1,0.2 0.3,0.3 0.4,0.5 0.4,0.7 0.7,1.5 0.7,2.4 0,0.8 -0.2,1.6 -0.6,2.3 l 1.7,-2.3 5.5,-7.6 c 2,-2.8 2,-6.6 0,-9.4 l -11.7,-16.1 z"
   id="path14633"
   inkscape:connector-curvature="0"
   style="fill:url(#SVGID_2_)" />
<linearGradient
   id="SVGID_3_"
   gradientUnits="userSpaceOnUse"
   x1="-9267.8076"
   y1="-76.460297"
   x2="-9273.5215"
   y2="-68.2052"
   gradientTransform="translate(9275.5669,104.9376)">
	<stop
   offset="0"
   style="stop-color:#E44838"
   id="stop14636" />
	<stop
   offset="1"
   style="stop-color:#EFA23B"
   id="stop14638" />
</linearGradient>
<path
   d="m 12.796574,23.7 -6.7999995,0 -5.20000002,7.1 c -1.99999998,2.8 0,6.8 3.40000002,6.8 l 0,0 c 1.4,0 2.6,-0.7 3.4,-1.7 l 6.5999995,-9.1 c 1,-1.3 0.1,-3.1 -1.4,-3.1 z"
   id="path14640"
   inkscape:connector-curvature="0"
   style="fill:url(#SVGID_3_)" />
<linearGradient
   id="SVGID_4_"
   gradientUnits="userSpaceOnUse"
   x1="-9261.0908"
   y1="-76.126602"
   x2="-9272.0225"
   y2="-89.849998"
   gradientTransform="translate(9275.5669,104.9376)">
	<stop
   offset="0"
   style="stop-color:#2D2E8D"
   id="stop14643" />
	<stop
   offset="1"
   style="stop-color:#289ED8"
   id="stop14645" />
</linearGradient>
<path
   d="m 7.6965745,11.6 c -0.8,-1.1 -2.1,-1.7 -3.4,-1.7 l 0,0 c -3.50000002,0 -5.5,3.9 -3.40000002,6.8 l 5.10000002,7 4,5.5 c 0.1,0.1 0.1,0.2 0.1999995,0.3 0.3,0.4 0.4,0.9 0.4,1.4 0,0.5 -0.1,0.9 -0.4,1.3 l 1,-1.3 3.2,-4.4 c 1.2,-1.6 1.2,-3.8 0,-5.4 L 7.6965745,11.6 Z"
   id="path14647"
   inkscape:connector-curvature="0"
   style="fill:url(#SVGID_4_)" />
<path
   d="m 96.996574,37.6 c -2.2,0 -4.4,0 -6.7,0 0,-0.3 0,-0.5 0,-0.8 0,-4.9 0,-9.8 0,-14.7 0,-2 -0.4,-3.8 -2.1,-5 -1.8,-1.4 -3.9,-1.4 -5.9,-0.5 -1.9,0.9 -3,2.5 -3,4.7 0,5.2 0,10.4 0,15.6 0,0.2 0,0.4 0,0.7 -2.2,0 -4.4,0 -6.6,0 0,-0.3 0,-0.5 0,-0.8 0,-5 0,-9.9 0,-14.9 0,-1.7 -0.4,-3.3 -1.7,-4.5 -2.4,-2.3 -6.5,-1.7 -8.5,1.2 -0.5,0.8 -0.8,1.7 -0.8,2.8 0,5.2 0,10.3 0,15.5 0,0.2 0,0.4 0,0.7 -2.2,0 -4.4,0 -6.6,0 0,-9.2 0,-18.4 0,-27.6 2.2,0 4.3,0 6.6,0 0,0.7 0,1.4 0,2.2 4.6,-4 11.4,-3.2 15,1.3 0.9,-0.7 1.7,-1.5 2.6,-2 4.2,-2.4 8.5,-2.7 12.7,0 2.6,1.7 3.9,4.4 4.6,7.3 0.3,1.4 0.5,2.9 0.5,4.4 0.1,4.5 0,9.1 0,13.6 -0.1,0.2 -0.1,0.5 -0.1,0.8 z"
   id="path14649"
   inkscape:connector-curvature="0"
   style="fill:#ffffff" />
<path
   d="m 280.29657,32.6 c -4.2,5.6 -13.3,6.9 -19.2,3.1 -8.8,-5.7 -8.5,-18.8 0.5,-24.2 4.7,-2.8 11.1,-2.6 15.3,0.6 2.7,2 4.1,4.8 4.8,8 0.4,1.8 0.5,3.6 0.8,5.5 -7,0 -13.7,0 -20.6,0 0.6,2.5 2,4.2 4.2,5 3.9,1.5 7.1,0.1 9.9,-2.7 1.5,1.7 2.9,3.2 4.3,4.7 z m -5.6,-12.2 c -0.3,-1.4 -0.8,-2.6 -1.9,-3.5 -2.6,-2.2 -6.9,-1.8 -9.3,0.8 -0.7,0.8 -1.3,1.6 -1.6,2.7 4.3,0 8.5,0 12.8,0 z"
   id="path14651"
   inkscape:connector-curvature="0"
   style="fill:#ffffff" />
<path
   d="m 128.09657,37.6 c -2.2,0 -4.3,0 -6.5,0 0,-0.6 0,-1.2 0,-1.9 -0.8,0.4 -1.4,0.8 -2.2,1.1 -4.3,1.8 -8.4,1.6 -12.2,-1.1 -2.5,-1.8 -3.6,-4.5 -3.9,-7.4 -0.2,-2.1 -0.2,-4.2 -0.2,-6.3 0,-3.7 0,-7.4 0,-11.1 0,-0.3 0,-0.5 0,-0.9 2.2,0 4.4,0 6.6,0 0,0.2 0,0.5 0,0.7 0,5 0,10 0,15 0,3 1.8,5.4 4.7,5.9 2.9,0.5 5.6,-0.6 6.8,-3.4 0.2,-0.4 0.3,-0.9 0.3,-1.4 0,-5.3 0,-10.6 0,-15.9 0,-0.3 0,-0.6 0,-0.9 2.2,0 4.4,0 6.6,0 0,9.2 0,18.4 0,27.6 z"
   id="path14653"
   inkscape:connector-curvature="0"
   style="fill:#ffffff" />
<path
   d="m 165.69657,31.3 c 0,2.1 0,4.2 0,6.3 -2.9,-0.2 -5.9,0.4 -8.8,-0.6 -3.2,-1 -4.9,-3.3 -5.2,-6.5 -0.2,-2.1 -0.1,-4.3 -0.2,-6.4 0,-2.7 0,-5.5 0,-8.3 -1.3,0 -2.6,0 -3.9,0 0,-2 0,-3.9 0,-6 1.3,0 2.6,0 3.9,0 0,-2 0,-3.9 0,-5.9 2.2,0 4.4,0 6.6,0 0,1.9 0,3.9 0,5.9 2.6,0 5,0 7.5,0 0,2 0,3.9 0,5.9 -2.5,0 -5,0 -7.5,0 0,0.3 0,0.5 0,0.8 0,3.7 0,7.3 0,11 0,0.2 0,0.4 0,0.6 0.1,2.1 1,3.1 3.1,3.1 1.6,0.2 3,0.1 4.5,0.1 z"
   id="path14655"
   inkscape:connector-curvature="0"
   style="fill:#ffffff" />
<rect
   x="134.59659"
   y="0.1"
   width="6.5999999"
   height="37.5"
   id="rect14657"
   style="fill:#ffffff" />
<g
   id="g14659"
   transform="translate(-0.00342552,0)">
	<path
   d="m 179.7,3.7 c -0.1,2 -1.6,3.7 -3.7,3.7 -2.1,0 -3.8,-1.7 -3.7,-3.8 0,-2 1.5,-3.6 3.7,-3.6 2.2,0 3.7,1.7 3.7,3.7 z"
   id="path14661"
   inkscape:connector-curvature="0"
   style="fill:#ffffff" />
	<rect
   x="172.60001"
   y="10"
   width="6.5999999"
   height="27.6"
   id="rect14663"
   style="fill:#ffffff" />
</g>
<path
   d="m 253.19657,31.3 c 0,2.1 0,4.2 0,6.3 -2.9,-0.2 -5.9,0.4 -8.8,-0.6 -3.2,-1 -4.9,-3.3 -5.2,-6.5 -0.2,-2.1 -0.1,-4.3 -0.2,-6.4 0,-2.7 0,-5.5 0,-8.3 -1.3,0 -2.6,0 -3.9,0 0,-2 0,-3.9 0,-6 1.3,0 2.6,0 3.9,0 0,-2 0,-3.9 0,-5.9 2.2,0 4.4,0 6.6,0 0,1.9 0,3.9 0,5.9 2.6,0 5,0 7.5,0 0,2 0,3.9 0,5.9 -2.5,0 -5,0 -7.5,0 0,0.3 0,0.5 0,0.8 0,3.7 0,7.3 0,11 0,0.2 0,0.4 0,0.6 0.1,2.1 1,3.1 3.1,3.1 1.5,0.2 3,0.1 4.5,0.1 z"
   id="path14665"
   inkscape:connector-curvature="0"
   style="fill:#ffffff" />
<g
   id="g14667"
   transform="translate(-0.00342552,0)">
	<path
   d="m 231.1,3.7 c -0.1,2 -1.6,3.7 -3.7,3.7 -2.1,0 -3.8,-1.7 -3.7,-3.8 0,-2 1.5,-3.6 3.7,-3.6 2.2,0 3.7,1.7 3.7,3.7 z"
   id="path14669"
   inkscape:connector-curvature="0"
   style="fill:#ffffff" />
	<rect
   x="224.10001"
   y="10"
   width="6.5999999"
   height="27.6"
   id="rect14671"
   style="fill:#ffffff" />
</g>
<g
   id="g14673"
   transform="translate(-0.00342552,0)">
	<path
   d="m 199,37.1 c -2.2,-0.6 -3.9,-1.3 -5.2,-2.1 l 2.7,-5.7 c 1.2,0.8 2.7,1.4 4.4,1.9 1.7,0.5 3.4,0.7 5.1,0.7 3.4,0 5.1,-0.8 5.1,-2.5 0,-0.8 -0.5,-1.3 -1.4,-1.7 -0.9,-0.3 -2.3,-0.6 -4.2,-0.9 -2.2,-0.3 -4.1,-0.7 -5.6,-1.2 -1.5,-0.4 -2.7,-1.2 -3.8,-2.4 -1.1,-1.1 -1.6,-2.7 -1.6,-4.8 0,-1.7 0.5,-3.3 1.5,-4.6 1,-1.3 2.5,-2.4 4.4,-3.1 1.9,-0.7 4.2,-1.1 6.8,-1.1 1.9,0 3.9,0.2 5.8,0.6 1.9,0.4 3.5,1 4.8,1.8 l -2.7,5.7 c -2.4,-1.4 -5.1,-2 -7.9,-2 -1.7,0 -3,0.2 -3.8,0.7 -0.9,0.5 -1.3,1.1 -1.3,1.8 0,0.9 0.5,1.4 1.4,1.8 0.9,0.3 2.4,0.7 4.4,1 2.2,0.4 4.1,0.8 5.5,1.2 1.4,0.4 2.7,1.2 3.7,2.3 1.1,1.1 1.6,2.7 1.6,4.7 0,1.7 -0.5,3.2 -1.5,4.5 -1,1.3 -2.5,2.4 -4.5,3.1 -2,0.7 -4.3,1.1 -7,1.1 -2.3,0 -4.5,-0.3 -6.7,-0.8 z"
   id="path14675"
   inkscape:connector-curvature="0"
   style="fill:#ffffff" />
</g>
</svg>