<?xml version="1.0" encoding="utf-8"?>
<!-- Generator: Adobe Illustrator 22.0.1, SVG Export Plug-In . SVG Version: 6.00 Build 0)  -->
<svg version="1.1" id="Layer_1" xmlns="http://www.w3.org/2000/svg" xmlns:xlink="http://www.w3.org/1999/xlink" x="0px" y="0px"
	 viewBox="0 0 282.5 47.5" enable-background="new 0 0 282.5 47.5" xml:space="preserve">
<linearGradient id="SVGID_1_" gradientUnits="userSpaceOnUse" x1="27.0364" y1="31.9035" x2="17.2295" y2="46.0728">
	<stop  offset="0" style="stop-color:#E44838"/>
	<stop  offset="1" style="stop-color:#EFA23B"/>
</linearGradient>
<path fill="url(#SVGID_1_)" d="M35.7,23.7H24l-8.8,12.2c-3.5,4.8-0.1,11.6,5.9,11.6h0c2.3,0,4.5-1.1,5.9-3l11.4-15.6
	C39.8,26.7,38.3,23.7,35.7,23.7z"/>
<linearGradient id="SVGID_2_" gradientUnits="userSpaceOnUse" x1="44.6182" y1="35.6391" x2="27.4005" y2="18.8889">
	<stop  offset="0" style="stop-color:#2D2E8D"/>
	<stop  offset="1" style="stop-color:#289ED8"/>
</linearGradient>
<path fill="url(#SVGID_2_)" d="M26.9,3c-1.4-1.9-3.6-3-5.9-3h0c-6,0-9.4,6.8-5.9,11.6l8.9,12.2l6.9,9.4c0.1,0.2,0.3,0.3,0.4,0.5
	c0.4,0.7,0.7,1.5,0.7,2.4c0,0.8-0.2,1.6-0.6,2.3l1.7-2.3l5.5-7.6c2-2.8,2-6.6,0-9.4L26.9,3z"/>
<linearGradient id="SVGID_3_" gradientUnits="userSpaceOnUse" x1="-9267.8076" y1="-76.4603" x2="-9273.5215" y2="-68.2052" gradientTransform="matrix(1 0 0 1 9275.5703 104.9376)">
	<stop  offset="0" style="stop-color:#E44838"/>
	<stop  offset="1" style="stop-color:#EFA23B"/>
</linearGradient>
<path fill="url(#SVGID_3_)" d="M12.8,23.7H6l-5.2,7.1c-2,2.8,0,6.8,3.4,6.8h0c1.4,0,2.6-0.7,3.4-1.7l6.6-9.1
	C15.2,25.5,14.3,23.7,12.8,23.7z"/>
<linearGradient id="SVGID_4_" gradientUnits="userSpaceOnUse" x1="-9261.0908" y1="-76.1266" x2="-9272.0225" y2="-89.85" gradientTransform="matrix(1 0 0 1 9275.5703 104.9376)">
	<stop  offset="0" style="stop-color:#2D2E8D"/>
	<stop  offset="1" style="stop-color:#289ED8"/>
</linearGradient>
<path fill="url(#SVGID_4_)" d="M7.7,11.6c-0.8-1.1-2.1-1.7-3.4-1.7h0c-3.5,0-5.5,3.9-3.4,6.8L6,23.7l4,5.5c0.1,0.1,0.1,0.2,0.2,0.3
	c0.3,0.4,0.4,0.9,0.4,1.4c0,0.5-0.1,0.9-0.4,1.3l1-1.3l3.2-4.4c1.2-1.6,1.2-3.8,0-5.4L7.7,11.6z"/>
<path fill="#FFFFFF" d="M97,37.6c-2.2,0-4.4,0-6.7,0c0-0.3,0-0.5,0-0.8c0-4.9,0-9.8,0-14.7c0-2-0.4-3.8-2.1-5
	c-1.8-1.4-3.9-1.4-5.9-0.5c-1.9,0.9-3,2.5-3,4.7c0,5.2,0,10.4,0,15.6c0,0.2,0,0.4,0,0.7c-2.2,0-4.4,0-6.6,0c0-0.3,0-0.5,0-0.8
	c0-5,0-9.9,0-14.9c0-1.7-0.4-3.3-1.7-4.5c-2.4-2.3-6.5-1.7-8.5,1.2c-0.5,0.8-0.8,1.7-0.8,2.8c0,5.2,0,10.3,0,15.5c0,0.2,0,0.4,0,0.7
	c-2.2,0-4.4,0-6.6,0c0-9.2,0-18.4,0-27.6c2.2,0,4.3,0,6.6,0c0,0.7,0,1.4,0,2.2c4.6-4,11.4-3.2,15,1.3c0.9-0.7,1.7-1.5,2.6-2
	c4.2-2.4,8.5-2.7,12.7,0c2.6,1.7,3.9,4.4,4.6,7.3c0.3,1.4,0.5,2.9,0.5,4.4c0.1,4.5,0,9.1,0,13.6C97,37,97,37.3,97,37.6z"/>
<path fill="#FFFFFF" d="M280.3,32.6c-4.2,5.6-13.3,6.9-19.2,3.1c-8.8-5.7-8.5-18.8,0.5-24.2c4.7-2.8,11.1-2.6,15.3,0.6
	c2.7,2,4.1,4.8,4.8,8c0.4,1.8,0.5,3.6,0.8,5.5c-7,0-13.7,0-20.6,0c0.6,2.5,2,4.2,4.2,5c3.9,1.5,7.1,0.1,9.9-2.7
	C277.5,29.6,278.9,31.1,280.3,32.6z M274.7,20.4c-0.3-1.4-0.8-2.6-1.9-3.5c-2.6-2.2-6.9-1.8-9.3,0.8c-0.7,0.8-1.3,1.6-1.6,2.7
	C266.2,20.4,270.4,20.4,274.7,20.4z"/>
<path fill="#FFFFFF" d="M128.1,37.6c-2.2,0-4.3,0-6.5,0c0-0.6,0-1.2,0-1.9c-0.8,0.4-1.4,0.8-2.2,1.1c-4.3,1.8-8.4,1.6-12.2-1.1
	c-2.5-1.8-3.6-4.5-3.9-7.4c-0.2-2.1-0.2-4.2-0.2-6.3c0-3.7,0-7.4,0-11.1c0-0.3,0-0.5,0-0.9c2.2,0,4.4,0,6.6,0c0,0.2,0,0.5,0,0.7
	c0,5,0,10,0,15c0,3,1.8,5.4,4.7,5.9c2.9,0.5,5.6-0.6,6.8-3.4c0.2-0.4,0.3-0.9,0.3-1.4c0-5.3,0-10.6,0-15.9c0-0.3,0-0.6,0-0.9
	c2.2,0,4.4,0,6.6,0C128.1,19.2,128.1,28.4,128.1,37.6z"/>
<path fill="#FFFFFF" d="M165.7,31.3c0,2.1,0,4.2,0,6.3c-2.9-0.2-5.9,0.4-8.8-0.6c-3.2-1-4.9-3.3-5.2-6.5c-0.2-2.1-0.1-4.3-0.2-6.4
	c0-2.7,0-5.5,0-8.3c-1.3,0-2.6,0-3.9,0c0-2,0-3.9,0-6c1.3,0,2.6,0,3.9,0c0-2,0-3.9,0-5.9c2.2,0,4.4,0,6.6,0c0,1.9,0,3.9,0,5.9
	c2.6,0,5,0,7.5,0c0,2,0,3.9,0,5.9c-2.5,0-5,0-7.5,0c0,0.3,0,0.5,0,0.8c0,3.7,0,7.3,0,11c0,0.2,0,0.4,0,0.6c0.1,2.1,1,3.1,3.1,3.1
	C162.8,31.4,164.2,31.3,165.7,31.3z"/>
<rect x="134.6" y="0.1" fill="#FFFFFF" width="6.6" height="37.5"/>
<g>
	<path fill="#FFFFFF" d="M179.7,3.7c-0.1,2-1.6,3.7-3.7,3.7c-2.1,0-3.8-1.7-3.7-3.8c0-2,1.5-3.6,3.7-3.6
		C178.2,0,179.7,1.7,179.7,3.7z"/>
	<rect x="172.6" y="10" fill="#FFFFFF" width="6.6" height="27.6"/>
</g>
<path fill="#FFFFFF" d="M253.2,31.3c0,2.1,0,4.2,0,6.3c-2.9-0.2-5.9,0.4-8.8-0.6c-3.2-1-4.9-3.3-5.2-6.5c-0.2-2.1-0.1-4.3-0.2-6.4
	c0-2.7,0-5.5,0-8.3c-1.3,0-2.6,0-3.9,0c0-2,0-3.9,0-6c1.3,0,2.6,0,3.9,0c0-2,0-3.9,0-5.9c2.2,0,4.4,0,6.6,0c0,1.9,0,3.9,0,5.9
	c2.6,0,5,0,7.5,0c0,2,0,3.9,0,5.9c-2.5,0-5,0-7.5,0c0,0.3,0,0.5,0,0.8c0,3.7,0,7.3,0,11c0,0.2,0,0.4,0,0.6c0.1,2.1,1,3.1,3.1,3.1
	C250.2,31.4,251.7,31.3,253.2,31.3z"/>
<g>
	<path fill="#FFFFFF" d="M231.1,3.7c-0.1,2-1.6,3.7-3.7,3.7c-2.1,0-3.8-1.7-3.7-3.8c0-2,1.5-3.6,3.7-3.6
		C229.6,0,231.1,1.7,231.1,3.7z"/>
	<rect x="224.1" y="10" fill="#FFFFFF" width="6.6" height="27.6"/>
</g>
<g>
	<path fill="#FFFFFF" d="M199,37.1c-2.2-0.6-3.9-1.3-5.2-2.1l2.7-5.7c1.2,0.8,2.7,1.4,4.4,1.9c1.7,0.5,3.4,0.7,5.1,0.7
		c3.4,0,5.1-0.8,5.1-2.5c0-0.8-0.5-1.3-1.4-1.7c-0.9-0.3-2.3-0.6-4.2-0.9c-2.2-0.3-4.1-0.7-5.6-1.2c-1.5-0.4-2.7-1.2-3.8-2.4
		c-1.1-1.1-1.6-2.7-1.6-4.8c0-1.7,0.5-3.3,1.5-4.6c1-1.3,2.5-2.4,4.4-3.1c1.9-0.7,4.2-1.1,6.8-1.1c1.9,0,3.9,0.2,5.8,0.6
		c1.9,0.4,3.5,1,4.8,1.8l-2.7,5.7c-2.4-1.4-5.1-2-7.9-2c-1.7,0-3,0.2-3.8,0.7c-0.9,0.5-1.3,1.1-1.3,1.8c0,0.9,0.5,1.4,1.4,1.8
		c0.9,0.3,2.4,0.7,4.4,1c2.2,0.4,4.1,0.8,5.5,1.2c1.4,0.4,2.7,1.2,3.7,2.3c1.1,1.1,1.6,2.7,1.6,4.7c0,1.7-0.5,3.2-1.5,4.5
		c-1,1.3-2.5,2.4-4.5,3.1c-2,0.7-4.3,1.1-7,1.1C203.4,37.9,201.2,37.6,199,37.1z"/>
</g>
</svg>
