<?xml version="1.0" encoding="UTF-8" standalone="no"?>
<svg
   xmlns:dc="http://purl.org/dc/elements/1.1/"
   xmlns:cc="http://creativecommons.org/ns#"
   xmlns:rdf="http://www.w3.org/1999/02/22-rdf-syntax-ns#"
   xmlns:svg="http://www.w3.org/2000/svg"
   xmlns="http://www.w3.org/2000/svg"
   height="47.599998"
   width="282.49658"
   xml:space="preserve"
   viewBox="0 0 282.49658 47.599998"
   y="0px"
   x="0px"
   id="Layer_1"
   version="1.1"><metadata
   id="metadata14704"><rdf:RDF><cc:Work
       rdf:about=""><dc:format>image/svg+xml</dc:format><dc:type
         rdf:resource="http://purl.org/dc/dcmitype/StillImage" /><dc:title></dc:title></cc:Work></rdf:RDF></metadata><defs
   id="defs14702" />
<style
   id="style14642"
   type="text/css">
	.st0{fill:url(#SVGID_1_);}
	.st1{fill:url(#SVGID_2_);}
	.st2{fill:url(#SVGID_3_);}
	.st3{fill:url(#SVGID_4_);}
	.st4{fill:#0C2F63;}
</style>
<linearGradient
   gradientTransform="translate(-242.00343,-426.9)"
   y2="472.97781"
   x2="259.2493"
   y1="458.8085"
   x1="269.05609"
   gradientUnits="userSpaceOnUse"
   id="SVGID_1_">
	<stop
   id="stop14645"
   style="stop-color:#E44838"
   offset="0" />
	<stop
   id="stop14647"
   style="stop-color:#EFA23B"
   offset="1" />
</linearGradient>
<path
   style="fill:url(#SVGID_1_)"
   id="path14649"
   d="m 35.696574,23.8 -11.7,0 -8.8,12.2 c -3.5,4.8 -0.1,11.6 5.9,11.6 l 0,0 c 2.3,0 4.5,-1.1 5.9,-3 l 11.4,-15.6 c 1.5,-2.2 -0.1,-5.2 -2.7,-5.2 z"
   class="st0" />
<linearGradient
   gradientTransform="translate(-242.00343,-426.9)"
   y2="445.79391"
   x2="269.4202"
   y1="462.5441"
   x1="286.638"
   gradientUnits="userSpaceOnUse"
   id="SVGID_2_">
	<stop
   id="stop14652"
   style="stop-color:#2D2E8D"
   offset="0" />
	<stop
   id="stop14654"
   style="stop-color:#289ED8"
   offset="1" />
</linearGradient>
<path
   style="fill:url(#SVGID_2_)"
   id="path14656"
   d="m 26.896574,3 c -1.4,-1.9 -3.6,-3 -5.9,-3 l 0,0 c -6,0 -9.4,6.8 -5.9,11.6 l 8.9,12.2 6.9,9.4 c 0.1,0.2 0.3,0.3 0.4,0.5 0.4,0.7 0.7,1.5 0.7,2.4 0,0.8 -0.2,1.6 -0.6,2.3 l 1.7,-2.3 5.5,-7.6 c 2,-2.8 2,-6.6 0,-9.4 l -11.7,-16.1 z"
   class="st1" />
<linearGradient
   gradientTransform="translate(9033.5669,-321.9624)"
   y2="358.6998"
   x2="-9031.502"
   y1="350.4447"
   x1="-9025.7881"
   gradientUnits="userSpaceOnUse"
   id="SVGID_3_">
	<stop
   id="stop14659"
   style="stop-color:#E44838"
   offset="0" />
	<stop
   id="stop14661"
   style="stop-color:#EFA23B"
   offset="1" />
</linearGradient>
<path
   style="fill:url(#SVGID_3_)"
   id="path14663"
   d="m 12.796574,23.7 -6.7999995,0 -5.20000002,7.1 c -1.99999998,2.8 0,6.8 3.40000002,6.8 l 0,0 c 1.4,0 2.6,-0.7 3.4,-1.7 l 6.5999995,-9.1 c 1,-1.3 0.1,-3.1 -1.4,-3.1 z"
   class="st2" />
<linearGradient
   gradientTransform="translate(9033.5669,-321.9624)"
   y2="337.05511"
   x2="-9030.0029"
   y1="350.77841"
   x1="-9019.0713"
   gradientUnits="userSpaceOnUse"
   id="SVGID_4_">
	<stop
   id="stop14666"
   style="stop-color:#2D2E8D"
   offset="0" />
	<stop
   id="stop14668"
   style="stop-color:#289ED8"
   offset="1" />
</linearGradient>
<path
   style="fill:url(#SVGID_4_)"
   id="path14670"
   d="m 7.6965745,11.6 c -0.8,-1.1 -2.1,-1.7 -3.4,-1.7 l 0,0 c -3.50000002,0 -5.5,3.9 -3.40000002,6.8 l 5.20000002,7.1 3.9999995,5.5 c 0.1,0.1 0.1,0.2 0.2,0.3 0.3,0.4 0.4,0.9 0.4,1.4 0,0.5 -0.1,0.9 -0.4,1.3 l 1,-1.3 3.2,-4.4 c 1.2,-1.6 1.2,-3.8 0,-5.4 L 7.6965745,11.6 Z"
   class="st3" />
<path
   style="fill:#0c2f63"
   id="path14672"
   d="m 96.996574,37.6 c -2.2,0 -4.4,0 -6.7,0 0,-0.3 0,-0.5 0,-0.8 0,-4.9 0,-9.8 0,-14.7 0,-2 -0.4,-3.8 -2.1,-5 -1.8,-1.4 -3.9,-1.4 -5.9,-0.5 -1.9,0.9 -3,2.5 -3,4.7 0,5.2 0,10.4 0,15.6 0,0.2 0,0.4 0,0.7 -2.2,0 -4.4,0 -6.6,0 0,-0.3 0,-0.5 0,-0.8 0,-5 0,-9.9 0,-14.9 0,-1.7 -0.4,-3.3 -1.7,-4.5 -2.4,-2.3 -6.5,-1.7 -8.5,1.2 -0.5,0.8 -0.8,1.7 -0.8,2.8 0,5.2 0,10.3 0,15.5 0,0.2 0,0.4 0,0.7 -2.2,0 -4.4,0 -6.6,0 0,-9.2 0,-18.4 0,-27.6 2.2,0 4.3,0 6.6,0 0,0.7 0,1.4 0,2.2 4.6,-4 11.4,-3.2 15,1.3 0.9,-0.7 1.7,-1.5 2.6,-2 4.2,-2.4 8.5,-2.7 12.7,0 2.6,1.7 3.9,4.4 4.6,7.3 0.3,1.4 0.5,2.9 0.5,4.4 0.1,4.5 0,9.1 0,13.6 -0.1,0.2 -0.1,0.5 -0.1,0.8 z"
   class="st4" />
<path
   style="fill:#0c2f63"
   id="path14674"
   d="m 280.29657,32.6 c -4.2,5.6 -13.3,6.9 -19.2,3.1 -8.8,-5.7 -8.5,-18.8 0.5,-24.2 4.7,-2.8 11.1,-2.6 15.3,0.6 2.7,2 4.1,4.8 4.8,8 0.4,1.8 0.5,3.6 0.8,5.5 -7,0 -13.7,0 -20.6,0 0.6,2.5 2,4.2 4.2,5 3.9,1.5 7.1,0.1 9.9,-2.7 1.5,1.7 2.9,3.2 4.3,4.7 z m -5.6,-12.2 c -0.3,-1.4 -0.8,-2.6 -1.9,-3.5 -2.6,-2.2 -6.9,-1.8 -9.3,0.8 -0.7,0.8 -1.3,1.6 -1.6,2.7 4.4,0 8.6,0 12.8,0 z"
   class="st4" />
<path
   style="fill:#0c2f63"
   id="path14676"
   d="m 128.09657,37.6 c -2.2,0 -4.3,0 -6.5,0 0,-0.6 0,-1.2 0,-1.9 -0.8,0.4 -1.4,0.8 -2.2,1.1 -4.3,1.8 -8.4,1.6 -12.2,-1.1 -2.5,-1.8 -3.6,-4.5 -3.9,-7.4 -0.2,-2.1 -0.2,-4.2 -0.2,-6.3 0,-3.7 0,-7.4 0,-11.1 0,-0.3 0,-0.5 0,-0.9 2.2,0 4.4,0 6.6,0 0,0.2 0,0.5 0,0.7 0,5 0,10 0,15 0,3 1.8,5.4 4.7,5.9 2.9,0.5 5.6,-0.6 6.8,-3.4 0.2,-0.4 0.3,-0.9 0.3,-1.4 0,-5.3 0,-10.6 0,-15.9 0,-0.3 0,-0.6 0,-0.9 2.2,0 4.4,0 6.6,0 0,9.2 0,18.4 0,27.6 z"
   class="st4" />
<path
   style="fill:#0c2f63"
   id="path14678"
   d="m 165.69657,31.4 c 0,2.1 0,4.2 0,6.3 -2.9,-0.2 -5.9,0.4 -8.8,-0.6 -3.2,-1 -4.9,-3.3 -5.2,-6.5 -0.2,-2.1 -0.1,-4.3 -0.2,-6.4 0,-2.7 0,-5.5 0,-8.3 -1.3,0 -2.6,0 -3.9,0 0,-2 0,-3.9 0,-6 1.3,0 2.6,0 3.9,0 0,-2 0,-3.9 0,-5.9 2.2,0 4.4,0 6.6,0 0,1.9 0,3.9 0,5.9 2.6,0 5,0 7.5,0 0,2 0,3.9 0,5.9 -2.5,0 -5,0 -7.5,0 0,0.3 0,0.5 0,0.8 0,3.7 0,7.3 0,11 0,0.2 0,0.4 0,0.6 0.1,2.1 1,3.1 3.1,3.1 1.6,0.1 3,0.1 4.5,0.1 z"
   class="st4" />
<rect
   style="fill:#0c2f63"
   id="rect14680"
   height="37.5"
   width="6.5999999"
   class="st4"
   y="0.1"
   x="134.59659" />
<g
   transform="translate(-242.00343,-426.9)"
   id="g14682">
	<path
   style="fill:#0c2f63"
   id="path14684"
   d="m 421.7,430.6 c -0.1,2 -1.6,3.7 -3.7,3.7 -2.1,0 -3.8,-1.7 -3.7,-3.8 0,-2 1.5,-3.6 3.7,-3.6 2.2,0 3.7,1.7 3.7,3.7 z"
   class="st4" />
	<rect
   style="fill:#0c2f63"
   id="rect14686"
   height="27.6"
   width="6.5999999"
   class="st4"
   y="436.89999"
   x="414.60001" />
</g>
<path
   style="fill:#0c2f63"
   id="path14688"
   d="m 253.19657,31.4 c 0,2.1 0,4.2 0,6.3 -2.9,-0.2 -5.9,0.4 -8.8,-0.6 -3.2,-1 -4.9,-3.3 -5.2,-6.5 -0.2,-2.1 -0.1,-4.3 -0.2,-6.4 0,-2.7 0,-5.5 0,-8.3 -1.3,0 -2.6,0 -3.9,0 0,-2 0,-3.9 0,-6 1.3,0 2.6,0 3.9,0 0,-2 0,-3.9 0,-5.9 2.2,0 4.4,0 6.6,0 0,1.9 0,3.9 0,5.9 2.6,0 5,0 7.5,0 0,2 0,3.9 0,5.9 -2.5,0 -5,0 -7.5,0 0,0.3 0,0.5 0,0.8 0,3.7 0,7.3 0,11 0,0.2 0,0.4 0,0.6 0.1,2.1 1,3.1 3.1,3.1 1.5,0.1 3,0.1 4.5,0.1 z"
   class="st4" />
<g
   transform="translate(-242.00343,-426.9)"
   id="g14690">
	<path
   style="fill:#0c2f63"
   id="path14692"
   d="m 473.2,430.6 c -0.1,2 -1.6,3.7 -3.7,3.7 -2.1,0 -3.8,-1.7 -3.7,-3.8 0,-2 1.5,-3.6 3.7,-3.6 2.1,0 3.7,1.7 3.7,3.7 z"
   class="st4" />
	<rect
   style="fill:#0c2f63"
   id="rect14694"
   height="27.6"
   width="6.5999999"
   class="st4"
   y="436.89999"
   x="466.10001" />
</g>
<g
   transform="translate(-242.00343,-426.9)"
   id="g14696">
	<path
   style="fill:#0c2f63"
   id="path14698"
   d="m 441,464 c -2.2,-0.6 -3.9,-1.3 -5.2,-2.1 l 2.7,-5.7 c 1.2,0.8 2.7,1.4 4.4,1.9 1.7,0.5 3.4,0.7 5.1,0.7 3.4,0 5.1,-0.8 5.1,-2.5 0,-0.8 -0.5,-1.3 -1.4,-1.7 -0.9,-0.3 -2.3,-0.6 -4.2,-0.9 -2.2,-0.3 -4.1,-0.7 -5.6,-1.2 -1.5,-0.4 -2.7,-1.2 -3.8,-2.4 -1.1,-1.1 -1.6,-2.7 -1.6,-4.8 0,-1.7 0.5,-3.3 1.5,-4.6 1,-1.3 2.5,-2.4 4.4,-3.1 1.9,-0.7 4.2,-1.1 6.8,-1.1 1.9,0 3.9,0.2 5.8,0.6 1.9,0.4 3.5,1 4.8,1.8 l -2.7,5.7 c -2.4,-1.4 -5.1,-2 -7.9,-2 -1.7,0 -3,0.2 -3.8,0.7 -0.9,0.5 -1.3,1.1 -1.3,1.8 0,0.9 0.5,1.4 1.4,1.8 0.9,0.3 2.4,0.7 4.4,1 2.2,0.4 4.1,0.8 5.5,1.2 1.4,0.4 2.7,1.2 3.7,2.3 1.1,1.1 1.6,2.7 1.6,4.7 0,1.7 -0.5,3.2 -1.5,4.5 -1,1.3 -2.5,2.4 -4.5,3.1 -2,0.7 -4.3,1.1 -7,1.1 -2.3,0 -4.5,-0.3 -6.7,-0.8 z"
   class="st4" />
</g>
</svg>