<?xml version="1.0" encoding="UTF-8" standalone="no"?>
<svg
   xmlns:dc="http://purl.org/dc/elements/1.1/"
   xmlns:cc="http://creativecommons.org/ns#"
   xmlns:rdf="http://www.w3.org/1999/02/22-rdf-syntax-ns#"
   xmlns:svg="http://www.w3.org/2000/svg"
   xmlns="http://www.w3.org/2000/svg"
   xmlns:sodipodi="http://sodipodi.sourceforge.net/DTD/sodipodi-0.dtd"
   xmlns:inkscape="http://www.inkscape.org/namespaces/inkscape"
   height="10.63333"
   width="14"
   xml:space="preserve"
   viewBox="0 0 14 10.63333"
   y="0px"
   x="0px"
   id="Capa_1"
   version="1.1"
   inkscape:version="0.91 r13725"
   sodipodi:docname="message-closed-envelope-grey.svg"><sodipodi:namedview
   pagecolor="#ffffff"
   bordercolor="#666666"
   borderopacity="1"
   objecttolerance="10"
   gridtolerance="10"
   guidetolerance="10"
   inkscape:pageopacity="0"
   inkscape:pageshadow="2"
   inkscape:window-width="1920"
   inkscape:window-height="1018"
   id="namedview49356"
   showgrid="false"
   inkscape:zoom="22.194364"
   inkscape:cx="3.8685743"
   inkscape:cy="5.3166652"
   inkscape:window-x="-8"
   inkscape:window-y="-8"
   inkscape:window-maximized="1"
   inkscape:current-layer="Capa_1" /><metadata
   id="metadata48549"><rdf:RDF><cc:Work
       rdf:about=""><dc:format>image/svg+xml</dc:format><dc:type
         rdf:resource="http://purl.org/dc/dcmitype/StillImage" /><dc:title></dc:title></cc:Work></rdf:RDF></metadata><defs
   id="defs48547" />
<path
   fill="#555555"
   id="path48513"
   d="M 12.338357,0 1.6616795,0 C 0.74543661,0 0,0.71586 0,1.59576 l 0,7.4418 c 0,0.8799 0.74543661,1.59577 1.6616795,1.59577 l 10.6766775,0 C 13.2546,10.63333 14,9.91746 14,9.03756 l 0,-7.4418 C 14,0.71586 13.2546,0 12.338357,0 Z m 0,9.22453 -10.6766775,0 c -0.1346812,0 -0.2528021,-0.0873 -0.2528021,-0.18697 l 0,-6.45774 4.8287776,4.07671 c 0.098996,0.0836 0.224884,0.12963 0.3545092,0.12963 l 0.8155251,3e-5 c 0.1295519,0 0.2555133,-0.046 0.3545458,-0.12966 l 4.8289979,-4.07685 0,6.45796 c -7.4e-5,0.0995 -0.118231,0.18689 -0.252876,0.18689 z M 7.0000183,5.38732 2.3034306,1.4088 l 9.3931754,0 -4.6965877,3.97852 z" />
<g
   transform="translate(0,-325.53867)"
   id="g48515">
</g>
<g
   transform="translate(0,-325.53867)"
   id="g48517">
</g>
<g
   transform="translate(0,-325.53867)"
   id="g48519">
</g>
<g
   transform="translate(0,-325.53867)"
   id="g48521">
</g>
<g
   transform="translate(0,-325.53867)"
   id="g48523">
</g>
<g
   transform="translate(0,-325.53867)"
   id="g48525">
</g>
<g
   transform="translate(0,-325.53867)"
   id="g48527">
</g>
<g
   transform="translate(0,-325.53867)"
   id="g48529">
</g>
<g
   transform="translate(0,-325.53867)"
   id="g48531">
</g>
<g
   transform="translate(0,-325.53867)"
   id="g48533">
</g>
<g
   transform="translate(0,-325.53867)"
   id="g48535">
</g>
<g
   transform="translate(0,-325.53867)"
   id="g48537">
</g>
<g
   transform="translate(0,-325.53867)"
   id="g48539">
</g>
<g
   transform="translate(0,-325.53867)"
   id="g48541">
</g>
<g
   transform="translate(0,-325.53867)"
   id="g48543">
</g>
</svg>