<?xml version="1.0" encoding="utf-8"?>
<!-- Generator: Adobe Illustrator 22.0.1, SVG Export Plug-In . SVG Version: 6.00 Build 0)  -->
<svg version="1.1" id="Layer_1" xmlns="http://www.w3.org/2000/svg" xmlns:xlink="http://www.w3.org/1999/xlink" x="0px" y="0px"
	 viewBox="0 0 75 54.8" enable-background="new 0 0 75 54.8" xml:space="preserve">
<path fill="#000000" opacity=".5" d="M43.8,54.8c-8.4,0.1-16.9-0.1-25.3-0.4c-2-0.1-4-0.1-6-0.3c-1.8-0.2-3.6-0.3-5.3-1c-1.8-0.7-3.2-1.8-4.2-3.4
	c-1-1.6-1.6-3.4-1.9-5.3c-1.6-10.3-1-20.7-0.4-31.1c0.1-1.6,0.3-3.1,0.8-4.7c0.5-1.5,1-3,2-4.2c1.1-1.3,2.4-2.3,4-2.9
	c1.4-0.5,2.9-0.7,4.3-0.8c3.1-0.2,6.2-0.4,9.3-0.5C23.9,0.1,26.7,0,29.5,0c6.7,0,13.4,0.1,20.1,0.1c1.7,0,3.5,0.1,5.2,0.2
	c2.6,0.1,5.2,0.2,7.8,0.4c1.5,0.1,2.9,0.2,4.3,0.6c2,0.6,3.7,1.8,4.9,3.6c1.1,1.6,1.7,3.5,2,5.5c0.3,1.5,0.5,3,0.6,4.6
	c0.2,1.9,0.4,3.8,0.4,5.7c0,6,0.3,12-0.3,18.1c-0.1,1.2-0.2,2.4-0.3,3.6c-0.2,2.1-0.7,4.1-1.5,6c-1.4,3.3-4,5.1-7.5,5.6
	c-1.9,0.3-3.9,0.3-5.9,0.5c-1,0.1-2,0.1-3,0.1C52.2,54.6,48,54.8,43.8,54.8z M50,26.7c0-0.1,0-0.1,0-0.2c-6.7-3.7-13.5-7.3-20.3-11
	c0,0.3,0,0.5,0,0.7c0,5.4,0,10.8,0,16.2c0,1.6,0,3.2,0,4.8c0,0.4,0.1,0.5,0.5,0.3c0.5-0.3,1-0.6,1.5-0.8c3-1.6,5.9-3.2,8.9-4.8
	c2.5-1.3,5-2.7,7.4-4C48.7,27.4,49.3,27.1,50,26.7z"/>
</svg>
