<?xml version="1.0" encoding="utf-8"?>
<!-- Generator: Adobe Illustrator 22.0.1, SVG Export Plug-In . SVG Version: 6.00 Build 0)  -->
<svg version="1.1" id="Capa_1" xmlns="http://www.w3.org/2000/svg" xmlns:xlink="http://www.w3.org/1999/xlink" x="0px" y="0px"
	 viewBox="0 0 50.6 51.5" enable-background="new 0 0 50.6 51.5" xml:space="preserve">
<g>
	<line fill="none" stroke="#E44838" stroke-miterlimit="10" x1="6.9" y1="5.9" x2="27.4" y2="27.6"/>
	<path fill="none" stroke="#E44838" stroke-miterlimit="10" d="M26.1,21.8c0.3-0.1,0.7-0.1,1-0.1c3,0,5.4,2.4,5.4,5.4
		s-2.4,5.4-5.4,5.4s-5.4-2.4-5.4-5.4c0-0.4,0-0.7,0.1-1.1"/>
	<path fill="none" stroke="#E44838" stroke-miterlimit="10" d="M21.7,17c1.6-0.9,3.4-1.3,5.4-1.3c6.3,0,11.4,5.1,11.4,11.4
		c0,4.4-2.4,8.2-6,10.1"/>
	<path fill="none" stroke="#E44838" stroke-miterlimit="10" d="M10.4,21.7c0.4-1.2,0.9-2.3,1.5-3.4"/>
	<path fill="none" stroke="#E44838" stroke-miterlimit="10" d="M19,11.6c2.4-1.3,5.2-2,8.2-2c9.7,0,17.5,7.8,17.5,17.5
		s-7.8,17.5-17.5,17.5S9.6,36.8,9.6,27.1c0-1.1,0.1-2.1,0.3-3.2"/>
	<path fill="none" stroke="#E44838" stroke-miterlimit="10" d="M15.1,7.5c3.5-2.2,7.6-3.4,12-3.4c12.7,0,23,10.3,23,23
		s-10.3,23-23,23s-23-10.3-23-23c0-4.6,1.3-8.9,3.7-12.4"/>
	<line fill="none" stroke="#E44838" stroke-miterlimit="10" x1="11.7" y1="51.2" x2="15" y2="46.6"/>
	<line fill="none" stroke="#E44838" stroke-miterlimit="10" x1="42.9" y1="51.2" x2="39.8" y2="46.2"/>
	<polyline fill="none" stroke="#E44838" stroke-miterlimit="10" points="16.6,16 9.2,16 1.2,7.8 9,7.8 	"/>
	<polyline fill="none" stroke="#E44838" stroke-miterlimit="10" points="16.6,16.2 16.6,9 8.8,1.2 8.8,7.9 	"/>
	<line fill="none" stroke="#E44838" stroke-miterlimit="10" x1="15.7" y1="27.1" x2="18.3" y2="27.1"/>
	<line fill="none" stroke="#E44838" stroke-miterlimit="10" x1="17.2" y1="32.6" x2="19.5" y2="31.3"/>
	<line fill="none" stroke="#E44838" stroke-miterlimit="10" x1="21.3" y1="36.7" x2="22.6" y2="34.4"/>
	<line fill="none" stroke="#E44838" stroke-miterlimit="10" x1="26.8" y1="38.2" x2="26.8" y2="35.6"/>
	<line fill="none" stroke="#E44838" stroke-miterlimit="10" x1="17.2" y1="21.5" x2="19.5" y2="22.8"/>
</g>
</svg>
