<?xml version="1.0" encoding="UTF-8" standalone="no"?>
<!-- Generator: Adobe Illustrator 22.0.1, SVG Export Plug-In . SVG Version: 6.00 Build 0)  -->

<svg
   xmlns:dc="http://purl.org/dc/elements/1.1/"
   xmlns:cc="http://creativecommons.org/ns#"
   xmlns:rdf="http://www.w3.org/1999/02/22-rdf-syntax-ns#"
   xmlns:svg="http://www.w3.org/2000/svg"
   xmlns="http://www.w3.org/2000/svg"
   xmlns:sodipodi="http://sodipodi.sourceforge.net/DTD/sodipodi-0.dtd"
   xmlns:inkscape="http://www.inkscape.org/namespaces/inkscape"
   version="1.1"
   id="Capa_1"
   x="0px"
   y="0px"
   viewBox="0 0 15.000045 15.01046"
   enable-background="new 0 0 14.5 14.5"
   xml:space="preserve"
   inkscape:version="0.91 r13725"
   sodipodi:docname="time.svg"
   width="15.000045"
   height="15.01046"><metadata
   id="metadata14639"><rdf:RDF><cc:Work
       rdf:about=""><dc:format>image/svg+xml</dc:format><dc:type
         rdf:resource="http://purl.org/dc/dcmitype/StillImage" /><dc:title></dc:title></cc:Work></rdf:RDF></metadata><defs
   id="defs14637" /><sodipodi:namedview
   pagecolor="#ffffff"
   bordercolor="#666666"
   borderopacity="1"
   objecttolerance="10"
   gridtolerance="10"
   guidetolerance="10"
   inkscape:pageopacity="0"
   inkscape:pageshadow="2"
   inkscape:window-width="1920"
   inkscape:window-height="1018"
   id="namedview14635"
   showgrid="false"
   inkscape:zoom="16.275862"
   inkscape:cx="-9.0817572"
   inkscape:cy="7.2328302"
   inkscape:window-x="-8"
   inkscape:window-y="-8"
   inkscape:window-maximized="1"
   inkscape:current-layer="Capa_1"
   fit-margin-top="0"
   fit-margin-left="0"
   fit-margin-right="0"
   fit-margin-bottom="0" />
<g
   id="g14629"
   transform="matrix(1.0410509,0,0,1.0400202,-0.05205254,-0.05200101)"
   style="fill:#555555;fill-opacity:1;stroke:#555555;stroke-opacity:1">
	<path
   stroke-miterlimit="10"
   d="m 0.3,7.7 c 0,-0.3 0,-0.5 0,-0.8 0,0 0,-0.1 0,-0.1 0.1,-1.1 0.4,-2.1 1,-3 1,-1.9 2.7,-3 4.7,-3.4 0.3,0 0.5,-0.1 0.8,-0.1 0.3,0 0.5,0 0.8,0 0.1,0 0.2,0 0.3,0 1.6,0.2 3,0.8 4.2,1.9 1.7,1.7 2.4,3.8 2,6.1 -0.2,1.5 -0.9,2.7 -1.9,3.8 -1.6,1.6 -3.5,2.3 -5.7,2.1 C 5.4,14.1 4.3,13.7 3.3,13.1 1.7,12 0.6,10.4 0.3,8.5 c 0,-0.3 0,-0.6 0,-0.8 z M 6.8,1.2 C 3.7,1.4 1.3,4.1 1.2,6.8 c 0,0 0.1,0 0.1,0 0.2,0 0.4,0 0.6,0 0.2,0 0.4,0.2 0.4,0.4 0,0.2 -0.2,0.4 -0.4,0.4 -0.1,0 -0.2,0 -0.3,0 -0.1,0 -0.3,0 -0.4,0 0.1,3 2.7,5.5 5.6,5.6 0,0 0,-0.1 0,-0.1 0,-0.2 0,-0.4 0,-0.6 0,-0.2 0.2,-0.4 0.4,-0.4 0.2,0 0.4,0.2 0.5,0.4 0,0.2 0,0.5 0,0.7 2.9,-0.1 5.5,-2.6 5.6,-5.6 0,0 -0.1,0 -0.1,0 -0.2,0 -0.4,0 -0.5,0 -0.3,0 -0.4,-0.2 -0.4,-0.4 0,-0.2 0.2,-0.4 0.4,-0.4 0.1,0 0.3,0 0.4,0 0.1,0 0.2,0 0.3,0 -0.2,-3.2 -3,-5.5 -5.6,-5.6 0,0.2 0,0.4 0,0.6 0,0.1 0,0.2 -0.1,0.3 C 7.5,2.3 7.3,2.3 7.2,2.3 7,2.3 6.8,2.1 6.8,1.9 c 0,-0.2 0,-0.5 0,-0.7 z"
   id="path14631"
   inkscape:connector-curvature="0"
   style="fill:#555555;fill-opacity:1;stroke:#555555;stroke-width:0.5;stroke-miterlimit:10;stroke-opacity:1" />
	<path
   stroke-miterlimit="10"
   d="m 6.8,5.3 c 0,-0.6 0,-1.2 0,-1.9 C 6.8,3.2 7,3 7.2,3 c 0.2,0 0.4,0.2 0.5,0.4 0,0.3 0,0.5 0,0.8 0,0.9 0,1.8 0,2.7 0,0.1 0,0.2 0.1,0.3 0.7,0.7 1.4,1.4 2.1,2.1 0.3,0.3 0.2,0.7 -0.2,0.8 C 9.5,10.2 9.4,10.1 9.2,10 8.9,9.7 8.5,9.3 8.2,9 7.8,8.4 7.4,8 7,7.6 6.9,7.5 6.8,7.4 6.8,7.2 6.8,6.6 6.8,6 6.8,5.3 Z"
   id="path14633"
   inkscape:connector-curvature="0"
   style="fill:#555555;fill-opacity:1;stroke:#555555;stroke-width:0.5;stroke-miterlimit:10;stroke-opacity:1" />
</g>
</svg>