<?xml version="1.0" encoding="UTF-8" standalone="no"?>
<svg
   xmlns:dc="http://purl.org/dc/elements/1.1/"
   xmlns:cc="http://creativecommons.org/ns#"
   xmlns:rdf="http://www.w3.org/1999/02/22-rdf-syntax-ns#"
   xmlns:svg="http://www.w3.org/2000/svg"
   xmlns="http://www.w3.org/2000/svg"
   height="65.567825"
   width="83.699997"
   xml:space="preserve"
   viewBox="0 0 83.699997 65.567825"
   y="0px"
   x="0px"
   id="Layer_1"
   version="1.1"><metadata
   id="metadata26159"><rdf:RDF><cc:Work
       rdf:about=""><dc:format>image/svg+xml</dc:format><dc:type
         rdf:resource="http://purl.org/dc/dcmitype/StillImage" /><dc:title></dc:title></cc:Work></rdf:RDF></metadata><defs
   id="defs26157" />
<style
   id="style26109"
   type="text/css">
	.st0{fill:none;stroke:#222222;stroke-linecap:round;stroke-linejoin:round;stroke-miterlimit:10;}
	.st1{fill:#E44838;}
</style>
<path
   style="fill:none;stroke:#222222;stroke-linecap:round;stroke-linejoin:round;stroke-miterlimit:10"
   id="path26111"
   d="m 26,26.760889 c 0,11.2 9.6,21.4 15.6,21.4 7.8,0 15.8,-13.6 15.8,-21.4"
   class="st0" />
<path
   style="fill:none;stroke:#222222;stroke-linecap:round;stroke-linejoin:round;stroke-miterlimit:10"
   id="path26113"
   d="m 26,24.560889 4.6,-6 c 7.1,3.2 14.6,3.4 22.5,0 l 4.4,6.6 c 0.4,-7.8 0,-13.9 -5.8,-15.8000005 -9,-11.6 -30.4,-2.7 -25.7,15.2000005 z"
   class="st0" />
<polyline
   transform="translate(-745.5,-324.53911)"
   style="fill:none;stroke:#222222;stroke-linecap:round;stroke-linejoin:round;stroke-miterlimit:10"
   id="polyline26115"
   points="806,355.8 807.3,356.8 806,358.4 810.2,362.9 "
   class="st0" />
<polyline
   transform="translate(-745.5,-324.53911)"
   style="fill:none;stroke:#222222;stroke-linecap:round;stroke-linejoin:round;stroke-miterlimit:10"
   id="polyline26117"
   points="815.6,362.9 819.1,358.4 818,357.1 821.7,354.3 819.5,352 "
   class="st0" />
<path
   style="fill:none;stroke:#222222;stroke-linecap:round;stroke-linejoin:round;stroke-miterlimit:10"
   id="path26119"
   d="m 63.2,31.260889 c 2.4,1.2 5,1.4 8.1,0"
   class="st0" />
<polyline
   transform="translate(-745.5,-324.53911)"
   style="fill:none;stroke:#222222;stroke-linecap:round;stroke-linejoin:round;stroke-miterlimit:10"
   id="polyline26121"
   points="768.5,351.3 764.1,355.3 761.6,354.3 759.1,355.3 755,351.3 "
   class="st0" />
<g
   transform="translate(-745.5,-324.53911)"
   id="g26123">
	<polygon
   style="fill:#e44838"
   id="polygon26125"
   points="785.3,380.1 783.1,375.5 787.4,372.7 791,375.7 788.8,379.9 791.1,389.6 783.1,389.6 "
   class="st1" />
	<polyline
   style="fill:none;stroke:#222222;stroke-linecap:round;stroke-linejoin:round;stroke-miterlimit:10"
   id="polyline26127"
   points="783.1,389.6 785.3,380.1 783.3,375.7  "
   class="st0" />
	<polyline
   style="fill:none;stroke:#222222;stroke-linecap:round;stroke-linejoin:round;stroke-miterlimit:10"
   id="polyline26129"
   points="791.1,389.6 788.8,379.9 791,375.7  "
   class="st0" />
</g>
<path
   style="fill:none;stroke:#222222;stroke-linecap:round;stroke-linejoin:round;stroke-miterlimit:10"
   id="path26131"
   d="m 26.7,39.660889 -26.2,0 0,-4.6 c 0,-1.7 0.9,-3.2 2.4,-3.9 l 5.5,-2.5"
   class="st0" />
<path
   style="fill:none;stroke:#222222;stroke-linecap:round;stroke-linejoin:round;stroke-miterlimit:10"
   id="path26133"
   d="m 54.3,47.360889 10.5,4.6 c 2.1,0.9 3.5,3.1 3.5,5.6 l 0,7.5 -53.5,0 0,-7.4 c 0,-2.5 1.4,-4.7 3.5,-5.6 l 10.7,-4.6"
   class="st0" />
<polyline
   transform="translate(-745.5,-324.53911)"
   style="fill:none;stroke:#222222;stroke-linecap:round;stroke-linejoin:round;stroke-miterlimit:10"
   id="polyline26135"
   points="775.9,368.3 775.9,369.9 781.2,376.8 787.6,372.7 "
   class="st0" />
<polyline
   transform="translate(-745.5,-324.53911)"
   style="fill:none;stroke:#222222;stroke-linecap:round;stroke-linejoin:round;stroke-miterlimit:10"
   id="polyline26137"
   points="787.3,372.9 792.8,376.8 798.3,370.2 798.3,368.3 "
   class="st0" />
<path
   style="fill:none;stroke:#222222;stroke-linecap:round;stroke-linejoin:round;stroke-miterlimit:10"
   id="path26139"
   d="m 56.5,39.660889 26.7,0 0,-3.1 c 0,-2.5 -1.6,-4.7 -3.8,-5.3 l -1.7,-0.5"
   class="st0" />
<path
   style="fill:none;stroke:#222222;stroke-linecap:round;stroke-linejoin:round;stroke-miterlimit:10"
   id="path26141"
   d="M 24,11.860889 22.4,8.8608885 c -6.8,0.1 -12.8,2.1000005 -18.1,5.9000005 -0.1,-4.3 0.8,-8.3000005 5.1,-11.3000005 l -1.4,-1.3 c 9.5,-3.7 15.4,-1.29999999 17.2,8.1000005"
   class="st0" />
<path
   style="fill:none;stroke:#222222;stroke-linecap:round;stroke-linejoin:round;stroke-miterlimit:10"
   id="path26143"
   d="m 7,14.760889 c 0,3.6 3.3,12.7 9.3,12.7 3.2,0 6.7,-4.7 6.7,-4.7"
   class="st0" />
<path
   style="fill:none;stroke:#222222;stroke-linecap:round;stroke-linejoin:round;stroke-miterlimit:10"
   id="path26145"
   d="m 76.6,16.660889 c 0,3.6 -3.3,12.7 -9.3,12.7 -3.2,0 -6.7,-4.7 -6.7,-4.7"
   class="st0" />
<path
   style="fill:none;stroke:#222222;stroke-linecap:round;stroke-linejoin:round;stroke-miterlimit:10"
   id="path26147"
   d="M 56.6,10.260889 C 58.3,5.6608885 62.4,2.4608885 67.2,2.4608885 l 0.5,0 c 6.3,0 11.4,5.5 11.4,12.4000005 l 0,14"
   class="st0" />
<path
   style="fill:none;stroke:#222222;stroke-linecap:round;stroke-linejoin:round;stroke-miterlimit:10"
   id="path26149"
   d="m 60.4,15.560889 c 3.3,-0.9 6.4,-2.3 9.3,-4.1 2.3,-1.4 4.4,-3.1000005 6.5,-4.9000005"
   class="st0" />
<path
   style="fill:none;stroke:#222222;stroke-linecap:round;stroke-linejoin:round;stroke-miterlimit:10"
   id="path26151"
   d="m 79,16.660889 c -3.6,-1.2 -6.6,-3.1 -8.9,-5.4"
   class="st0" />
<line
   style="fill:none;stroke:#222222;stroke-linecap:round;stroke-linejoin:round;stroke-miterlimit:10"
   id="line26153"
   y2="55.560894"
   x2="43.299988"
   y1="55.560894"
   x1="39.799988"
   class="st0" />
</svg>