<?xml version="1.0" encoding="UTF-8" standalone="no"?>
<svg
   xmlns:dc="http://purl.org/dc/elements/1.1/"
   xmlns:cc="http://creativecommons.org/ns#"
   xmlns:rdf="http://www.w3.org/1999/02/22-rdf-syntax-ns#"
   xmlns:svg="http://www.w3.org/2000/svg"
   xmlns="http://www.w3.org/2000/svg"
   height="69.605072"
   width="91.010201"
   xml:space="preserve"
   viewBox="0 0 91.010201 69.605072"
   y="0px"
   x="0px"
   id="Layer_1"
   version="1.1"><metadata
   id="metadata60135"><rdf:RDF><cc:Work
       rdf:about=""><dc:format>image/svg+xml</dc:format><dc:type
         rdf:resource="http://purl.org/dc/dcmitype/StillImage" /><dc:title></dc:title></cc:Work></rdf:RDF></metadata><defs
   id="defs60133" />
<style
   id="style60095"
   type="text/css">
	.st0{fill:#E44838;stroke:#222222;stroke-linecap:round;stroke-linejoin:round;stroke-miterlimit:10;}
	.st1{fill:#F9F9FA;}
	.st2{fill:none;stroke:#222222;stroke-linecap:round;stroke-linejoin:round;stroke-miterlimit:10;}
</style>
<path
   style="fill:#e44838;stroke:#222222;stroke-linecap:round;stroke-linejoin:round;stroke-miterlimit:10"
   id="path60097"
   d="m 30.60505,0.5 c -10.1,0 -17.1,8.3 -17.1,17.1 0,3.2 0.9,6.5 3,9.5 l 11.9,17.6 c 1.1,1.6 3.5,1.6 4.6,0 l 11.9,-17.6 c 7.5,-11.3 -0.6,-26.6 -14.3,-26.6 z m 0,23.6 c -3.5,0 -6.2,-2.8 -6.2,-6.3 0,-3.4 2.8,-6.2 6.2,-6.2 3.4,0 6.2,2.8 6.2,6.2 0,3.5 -2.8,6.3 -6.2,6.3 z"
   class="st0" />
<polygon
   transform="translate(-495.49495,-506.8)"
   style="fill:#f9f9fa"
   id="polygon60099"
   points="496.1,553.2 513,570.2 507.3,575.9 496.1,575.9 "
   class="st1" />
<path
   style="fill:none;stroke:#222222;stroke-linecap:round;stroke-linejoin:round;stroke-miterlimit:10"
   id="path60101"
   d="m 30.60505,0.5 c -10.1,0 -17.1,8.3 -17.1,17.1 0,3.2 0.9,6.5 3,9.5 l 11.9,17.6 c 1.1,1.6 3.5,1.6 4.6,0 l 11.9,-17.6 c 7.5,-11.3 -0.6,-26.6 -14.3,-26.6 z m 0,23.6 c -3.5,0 -6.2,-2.8 -6.2,-6.3 0,-3.4 2.8,-6.2 6.2,-6.2 3.4,0 6.2,2.8 6.2,6.2 0,3.5 -2.8,6.3 -6.2,6.3 z"
   class="st2" />
<polyline
   transform="translate(-495.49495,-506.8)"
   style="fill:none;stroke:#222222;stroke-linecap:round;stroke-linejoin:round;stroke-miterlimit:10"
   id="polyline60103"
   points="545.8,515.6 585.9,515.6 585.9,575.9 496.1,575.9 496.1,515.6 505.7,515.6 "
   class="st2" />
<polyline
   transform="translate(-495.49495,-506.8)"
   style="fill:none;stroke:#222222;stroke-linecap:round;stroke-linejoin:round;stroke-miterlimit:10"
   id="polyline60105"
   points="509,537.4 500.7,545.8 519.5,564.6 524.9,559.3 541,575.5 "
   class="st2" />
<polyline
   transform="translate(-495.49495,-506.8)"
   style="fill:none;stroke:#222222;stroke-linecap:round;stroke-linejoin:round;stroke-miterlimit:10"
   id="polyline60107"
   points="547.3,575.9 553,570.2 534.6,551.7 "
   class="st2" />
<polyline
   transform="translate(-495.49495,-506.8)"
   style="fill:none;stroke:#222222;stroke-linecap:round;stroke-linejoin:round;stroke-miterlimit:10"
   id="polyline60109"
   points="538.8,545.8 564.6,571.5 560.6,575.5 "
   class="st2" />
<line
   style="fill:none;stroke:#222222;stroke-linecap:round;stroke-linejoin:round;stroke-miterlimit:10"
   id="line60111"
   y2="50.700001"
   x2="90.205063"
   y1="68.799973"
   x1="72.205063"
   class="st2" />
<line
   style="fill:none;stroke:#222222;stroke-linecap:round;stroke-linejoin:round;stroke-miterlimit:10"
   id="line60113"
   y2="61.400013"
   x2="90.105026"
   y1="69.100021"
   x1="82.405075"
   class="st2" />
<polyline
   transform="translate(-495.49495,-506.8)"
   style="fill:none;stroke:#222222;stroke-linecap:round;stroke-linejoin:round;stroke-miterlimit:10"
   id="polyline60115"
   points="541.5,541.7 568.1,568.3 585.5,550.9 "
   class="st2" />
<line
   style="fill:none;stroke:#222222;stroke-linecap:round;stroke-linejoin:round;stroke-miterlimit:10"
   id="line60117"
   y2="8.900012"
   x2="58.905075"
   y1="15.900012"
   x1="51.905075"
   class="st2" />
<polyline
   transform="translate(-495.49495,-506.8)"
   style="fill:none;stroke:#222222;stroke-linecap:round;stroke-linejoin:round;stroke-miterlimit:10"
   id="polyline60119"
   points="496.1,539.7 505.7,530 496,520.3 "
   class="st2" />
<polyline
   transform="translate(-495.49495,-506.8)"
   style="fill:none;stroke:#222222;stroke-linecap:round;stroke-linejoin:round;stroke-miterlimit:10"
   id="polyline60121"
   points="496.1,553.2 513,570.2 507.3,575.9 "
   class="st2" />
<polyline
   transform="translate(-495.49495,-506.8)"
   style="fill:none;stroke:#222222;stroke-linecap:round;stroke-linejoin:round;stroke-miterlimit:10"
   id="polyline60123"
   points="518.3,575.5 524.7,569 530.3,574.5 529,575.8 "
   class="st2" />
<polyline
   transform="translate(-495.49495,-506.8)"
   style="fill:none;stroke:#222222;stroke-linecap:round;stroke-linejoin:round;stroke-miterlimit:10"
   id="polyline60125"
   points="585.5,519.3 574.7,530.1 567.2,522.7 574.2,515.7 "
   class="st2" />
<polyline
   transform="translate(-495.49495,-506.8)"
   style="fill:none;stroke:#222222;stroke-linecap:round;stroke-linejoin:round;stroke-miterlimit:10"
   id="polyline60127"
   points="586,527.6 577.4,536.1 583.4,542.2 586,539.7 "
   class="st2" />
<polygon
   transform="translate(-495.49495,-506.8)"
   style="fill:none;stroke:#222222;stroke-linecap:round;stroke-linejoin:round;stroke-miterlimit:10"
   id="polygon60129"
   points="547.7,537.1 557.6,527.6 577.2,547.2 567.5,556.9 "
   class="st2" />
</svg>