<?xml version="1.0" encoding="utf-8"?>
<!-- Generator: Adobe Illustrator 22.0.1, SVG Export Plug-In . SVG Version: 6.00 Build 0)  -->
<svg version="1.1" id="Layer_1" xmlns="http://www.w3.org/2000/svg" xmlns:xlink="http://www.w3.org/1999/xlink" x="0px" y="0px"
	 viewBox="0 0 89.6 62.9" enable-background="new 0 0 89.6 62.9" xml:space="preserve">
<g>
	<path fill="#E44838" d="M66.6,12.3l0.2,0v8.9l-0.2,0c-3.5,0.4-6.1,3.3-6.1,6.8c0,3.8,3.1,6.8,6.8,6.8c1.6,0,3-0.5,4.3-1.6l0.1-0.1
		l6.3,6.3l-0.2,0.1c-2.9,2.7-6.6,4.1-10.5,4.1c-8.6,0-15.7-7-15.7-15.7C51.6,19.5,58.2,12.7,66.6,12.3z"/>
	<path fill="#222222" d="M44.8,57.3c0.3,0,0.5-0.2,0.5-0.5V8.9c0-0.3-0.2-0.5-0.5-0.5s-0.5,0.2-0.5,0.5v47.8
		C44.3,57,44.5,57.3,44.8,57.3z"/>
	<path fill="#222222" d="M6.1,44.6h32.3c0.3,0,0.5-0.2,0.5-0.5c0-0.3-0.2-0.5-0.5-0.5h-2.3v-9.3c0-0.3-0.2-0.5-0.5-0.5h-7
		c-0.3,0-0.5,0.2-0.5,0.5v9.3h-1.8V16c0-0.3-0.2-0.5-0.5-0.5h-7c-0.3,0-0.5,0.2-0.5,0.5v27.6h-1.8V24.4c0-0.3-0.2-0.5-0.5-0.5h-7
		c-0.3,0-0.5,0.2-0.5,0.5v19.2H6.6V11.8c0-0.3-0.2-0.5-0.5-0.5s-0.5,0.2-0.5,0.5v32.3C5.6,44.4,5.9,44.6,6.1,44.6z M29.1,34.8h6v1.8
		h-6V34.8z M29.1,37.6h6v1.8h-6V37.6z M29.1,40.4h6v3.2h-6V40.4z M19.3,16.5h6v4.6h-6V16.5z M19.3,22.1h6v8.8h-6V22.1z M19.3,31.9h6
		v11.6h-6V31.9z M9.4,24.9h6v1.8h-6V24.9z M9.4,27.7h6v8.8h-6V27.7z M9.4,37.6h6v6h-6V37.6z"/>
	<path fill="#222222" d="M36.4,50.6H8.2c-0.3,0-0.5,0.2-0.5,0.5c0,0.3,0.2,0.5,0.5,0.5h28.1c0.3,0,0.5-0.2,0.5-0.5
		C36.9,50.9,36.6,50.6,36.4,50.6z"/>
	<path fill="#222222" d="M30.7,53.4H13.9c-0.3,0-0.5,0.2-0.5,0.5c0,0.3,0.2,0.5,0.5,0.5h16.9c0.3,0,0.5-0.2,0.5-0.5
		C31.2,53.7,31,53.4,30.7,53.4z"/>
	<path fill="#222222" d="M81.4,50.6H53.2c-0.3,0-0.5,0.2-0.5,0.5c0,0.3,0.2,0.5,0.5,0.5h28.1c0.3,0,0.5-0.2,0.5-0.5
		C81.9,50.9,81.6,50.6,81.4,50.6z"/>
	<path fill="#222222" d="M75.7,53.4H58.9c-0.3,0-0.5,0.2-0.5,0.5c0,0.3,0.2,0.5,0.5,0.5h16.9c0.3,0,0.5-0.2,0.5-0.5
		C76.2,53.7,76,53.4,75.7,53.4z"/>
	<path fill="#222222" d="M67.3,44.6c4.4,0,8.6-1.7,11.8-4.9l0,0c2-2,3.5-4.5,4.2-7.2c0,0,0-0.1,0-0.1c0.4-1.5,0.6-3,0.6-4.5
		c0,0,0-0.1,0-0.1c0,0,0-0.1,0-0.1c0,0,0-0.1,0-0.1c0-1.2-0.2-2.4-0.4-3.5c0-0.1,0-0.1,0-0.2c-0.3-1-0.6-2-1-2.9
		c0-0.1,0-0.1-0.1-0.2c-0.4-0.9-0.9-1.7-1.4-2.4l-0.2-0.3c-0.6-0.8-1.1-1.4-1.7-2l-0.1-0.1c-0.6-0.6-1.3-1.2-2.1-1.8l0,0
		c-0.7-0.5-1.5-1-2.3-1.4l0,0L74,12.7l0,0c-0.8-0.4-1.7-0.7-2.6-0.9c-0.1,0-0.1-0.1-0.2-0.1c-1.3-0.3-2.6-0.5-3.8-0.5
		c-9.2,0-16.7,7.5-16.7,16.7C50.6,37.1,58.1,44.6,67.3,44.6z M81.2,35.2c-0.6,1.2-1.4,2.2-2.3,3.2l-0.1,0.2L78,37.9l3.8-3.8
		L81.2,35.2z M82.9,29.5c-0.1,0.8-0.2,1.6-0.5,2.5l0,0.1l-5.2,5.2L76,35.9l7-7L82.9,29.5z M82.7,25.2l0.1,0.4
		c0.1,0.6,0.2,1.2,0.2,1.8l0,0.1l-0.1,0.1l-7.6,7.6L74,33.9L82.7,25.2z M81.9,22.4c0.2,0.5,0.4,1,0.5,1.5l0,0.1l-9.2,9.2l-0.8-0.8
		l0.1-0.1c0.5-0.6,0.9-1.3,1.1-2l0-0.1l8.1-8.1L81.9,22.4z M80.6,19.7c0.3,0.4,0.5,0.9,0.7,1.3l0.1,0.1l-7.3,7.3l0-0.5
		c0-0.5-0.1-1.1-0.2-1.7l0-0.1l6.6-6.6L80.6,19.7z M78.9,17.4c0.3,0.4,0.6,0.7,0.9,1.1l0.1,0.1L73.5,25l-0.1-0.2
		c-0.2-0.4-0.5-0.8-0.8-1.2l-0.1-0.1l6.3-6.3L78.9,17.4z M76.7,15.5c0.4,0.3,0.7,0.6,1.1,0.9l0.2,0.1l-6.3,6.3l-0.1-0.1
		c-0.4-0.3-0.8-0.6-1.2-0.8l-0.2-0.1l6.4-6.4L76.7,15.5z M67.8,12.3l0.2,0c0.6,0,1.1,0.1,1.7,0.2l0.4,0.1l-2.3,2.3V12.3z M67.8,16.2
		l3.4-3.4l0.1,0c0.5,0.1,1,0.3,1.5,0.5l0.3,0.1l-5.3,5.3V16.2z M67.8,20.2l6.3-6.3l0.1,0.1c0.4,0.2,0.9,0.5,1.3,0.7l0.2,0.1
		l-6.6,6.6l-0.1,0c-0.3-0.1-0.7-0.1-1.1-0.2l-0.2,0V20.2z M67.3,22.1L67.3,22.1L67.3,22.1c3.3,0,5.9,2.6,5.9,5.8
		c0,3.2-2.6,5.8-5.8,5.8s-5.8-2.6-5.8-5.8C61.5,24.7,64.1,22.1,67.3,22.1L67.3,22.1z M66.6,12.3l0.2,0v8.9l-0.2,0
		c-3.5,0.4-6.1,3.3-6.1,6.8c0,3.8,3.1,6.8,6.8,6.8c1.6,0,3-0.5,4.3-1.6l0.1-0.1l6.3,6.3l-0.2,0.1c-2.9,2.7-6.6,4.1-10.5,4.1
		c-8.6,0-15.7-7-15.7-15.7C51.6,19.5,58.2,12.7,66.6,12.3z"/>
	<g>
		<path fill="#222222" d="M3.4,1.4L3.4,1.4c-0.3,0-0.5,0.2-0.5,0.5c0,0.3,0.2,0.5,0.5,0.5c0.3,0,0.5-0.2,0.5-0.5
			C3.9,1.6,3.6,1.4,3.4,1.4z"/>
		<path fill="#222222" d="M9,1.4L9,1.4c-0.3,0-0.5,0.2-0.5,0.5c0,0.3,0.2,0.5,0.5,0.5c0.3,0,0.5-0.2,0.5-0.5C9.5,1.6,9.3,1.4,9,1.4z
			"/>
		<path fill="#222222" d="M87.7,0H1.9C0.9,0,0,0.9,0,1.9v60.5c0,0.3,0.2,0.5,0.5,0.5h88.6c0.3,0,0.5-0.2,0.5-0.5V1.9
			C89.6,0.9,88.7,0,87.7,0z M88.6,61.9H1V3.8h87.6V61.9z M88.6,2.8H1V1.9C1,1.4,1.4,1,1.9,1h85.8c0.5,0,0.9,0.4,0.9,0.9V2.8z"/>
		<path fill="#222222" d="M6.2,1.4L6.2,1.4c-0.3,0-0.5,0.2-0.5,0.5c0,0.3,0.2,0.5,0.5,0.5c0.3,0,0.5-0.2,0.5-0.5
			C6.7,1.6,6.4,1.4,6.2,1.4z"/>
	</g>
</g>
</svg>
