<?xml version="1.0" encoding="UTF-8" standalone="no"?>
<svg
   xmlns:dc="http://purl.org/dc/elements/1.1/"
   xmlns:cc="http://creativecommons.org/ns#"
   xmlns:rdf="http://www.w3.org/1999/02/22-rdf-syntax-ns#"
   xmlns:svg="http://www.w3.org/2000/svg"
   xmlns="http://www.w3.org/2000/svg"
   height="75.100014"
   width="91.607109"
   xml:space="preserve"
   viewBox="0 0 91.607109 75.100014"
   y="0px"
   x="0px"
   id="Layer_1"
   version="1.1"><metadata
   id="metadata14761"><rdf:RDF><cc:Work
       rdf:about=""><dc:format>image/svg+xml</dc:format><dc:type
         rdf:resource="http://purl.org/dc/dcmitype/StillImage" /><dc:title></dc:title></cc:Work></rdf:RDF></metadata><defs
   id="defs14759" />
<style
   id="style14621"
   type="text/css">
	.st0{fill:#E44838;stroke:#222222;stroke-linecap:round;stroke-linejoin:round;stroke-miterlimit:10;}
	.st1{fill:#F9F9FA;stroke:#222222;stroke-linecap:round;stroke-linejoin:round;stroke-miterlimit:10;}
	.st2{fill:none;stroke:#222222;stroke-linecap:round;stroke-linejoin:round;stroke-miterlimit:10;}
</style>
<circle
   style="fill:#e44838;stroke:#222222;stroke-linecap:round;stroke-linejoin:round;stroke-miterlimit:10"
   id="circle14623"
   r="22.799999"
   cy="51.800011"
   cx="68.307106"
   class="st0" />
<circle
   style="fill:#f9f9fa;stroke:#222222;stroke-linecap:round;stroke-linejoin:round;stroke-miterlimit:10"
   id="circle14625"
   r="19.299999"
   cy="51.800011"
   cx="68.307106"
   class="st1" />
<polyline
   transform="translate(-500.49288,-323.9)"
   style="fill:none;stroke:#222222;stroke-linecap:round;stroke-linejoin:round;stroke-miterlimit:10"
   id="polyline14627"
   points="507.9,330.3 501,330.3 501,380.7 512.4,392.1 549.6,392.1 "
   class="st2" />
<polyline
   transform="translate(-500.49288,-323.9)"
   style="fill:none;stroke:#222222;stroke-linecap:round;stroke-linejoin:round;stroke-miterlimit:10"
   id="polyline14629"
   points="501,384.3 501,394.7 552,394.7 "
   class="st2" />
<line
   style="fill:none;stroke:#222222;stroke-linecap:round;stroke-linejoin:round;stroke-miterlimit:10"
   id="line14631"
   y2="73.899986"
   x2="55.80711"
   y1="73.899986"
   x1="0.50712126"
   class="st2" />
<line
   style="fill:none;stroke:#222222;stroke-linecap:round;stroke-linejoin:round;stroke-miterlimit:10"
   id="line14633"
   y2="19.800013"
   x2="0.50712126"
   y1="19.800013"
   x1="66.20713"
   class="st2" />
<polyline
   transform="translate(-500.49288,-323.9)"
   style="fill:none;stroke:#222222;stroke-linecap:round;stroke-linejoin:round;stroke-miterlimit:10"
   id="polyline14635"
   points="566.7,349.8 566.7,330.3 559.6,330.3 "
   class="st2" />
<line
   style="fill:none;stroke:#222222;stroke-linecap:round;stroke-linejoin:round;stroke-miterlimit:10"
   id="line14637"
   y2="6.3999877"
   x2="44.607098"
   y1="6.3999877"
   x1="50.507122"
   class="st2" />
<line
   style="fill:none;stroke:#222222;stroke-linecap:round;stroke-linejoin:round;stroke-miterlimit:10"
   id="line14639"
   y2="6.3999877"
   x2="30.107098"
   y1="6.3999877"
   x1="36.607098"
   class="st2" />
<line
   style="fill:none;stroke:#222222;stroke-linecap:round;stroke-linejoin:round;stroke-miterlimit:10"
   id="line14641"
   y2="6.3999877"
   x2="16.007122"
   y1="6.3999877"
   x1="22.107098"
   class="st2" />
<path
   style="fill:none;stroke:#222222;stroke-linecap:round;stroke-linejoin:round;stroke-miterlimit:10"
   id="path14643"
   d="m 11.607121,12.5 0,0 c -0.8,0 -1.5,-0.7 -1.5,-1.5 l 0,-9 c 0,-0.8 0.7,-1.5 1.5,-1.5 l 0,0 c 0.8,0 1.5,0.7 1.5,1.5 l 0,9 c 0.1,0.8 -0.6,1.5 -1.5,1.5 z"
   class="st2" />
<path
   style="fill:none;stroke:#222222;stroke-linecap:round;stroke-linejoin:round;stroke-miterlimit:10"
   id="path14645"
   d="m 26.107121,12.5 0,0 c -0.8,0 -1.5,-0.7 -1.5,-1.5 l 0,-9 c 0,-0.8 0.7,-1.5 1.5,-1.5 l 0,0 c 0.8,0 1.5,0.7 1.5,1.5 l 0,9 c 0,0.8 -0.6,1.5 -1.5,1.5 z"
   class="st2" />
<path
   style="fill:none;stroke:#222222;stroke-linecap:round;stroke-linejoin:round;stroke-miterlimit:10"
   id="path14647"
   d="m 40.407121,12.5 0,0 c -0.8,0 -1.5,-0.7 -1.5,-1.5 l 0,-9 c 0,-0.8 0.7,-1.5 1.5,-1.5 l 0,0 c 0.8,0 1.5,0.7 1.5,1.5 l 0,9 c 0,0.8 -0.7,1.5 -1.5,1.5 z"
   class="st2" />
<path
   style="fill:none;stroke:#222222;stroke-linecap:round;stroke-linejoin:round;stroke-miterlimit:10"
   id="path14649"
   d="m 54.707121,12.5 0,0 c -0.8,0 -1.5,-0.7 -1.5,-1.5 l 0,-9 c 0,-0.8 0.7,-1.5 1.5,-1.5 l 0,0 c 0.8,0 1.5,0.7 1.5,1.5 l 0,9 c 0,0.8 -0.7,1.5 -1.5,1.5 z"
   class="st2" />
<line
   style="fill:none;stroke:#222222;stroke-linecap:round;stroke-linejoin:round;stroke-miterlimit:10"
   id="line14651"
   y2="16.800013"
   x2="10.107127"
   y1="16.800013"
   x1="5.0071211"
   class="st2" />
<line
   style="fill:none;stroke:#222222;stroke-linecap:round;stroke-linejoin:round;stroke-miterlimit:10"
   id="line14653"
   y2="16.800013"
   x2="18.30711"
   y1="16.800013"
   x1="13.207133"
   class="st2" />
<line
   style="fill:none;stroke:#222222;stroke-linecap:round;stroke-linejoin:round;stroke-miterlimit:10"
   id="line14655"
   y2="16.800013"
   x2="26.80711"
   y1="16.800013"
   x1="21.707134"
   class="st2" />
<line
   style="fill:none;stroke:#222222;stroke-linecap:round;stroke-linejoin:round;stroke-miterlimit:10"
   id="line14657"
   y2="16.800013"
   x2="35.607098"
   y1="16.800013"
   x1="30.507122"
   class="st2" />
<line
   style="fill:none;stroke:#222222;stroke-linecap:round;stroke-linejoin:round;stroke-miterlimit:10"
   id="line14659"
   y2="16.800013"
   x2="44.207134"
   y1="16.800013"
   x1="39.107098"
   class="st2" />
<line
   style="fill:none;stroke:#222222;stroke-linecap:round;stroke-linejoin:round;stroke-miterlimit:10"
   id="line14661"
   y2="16.800013"
   x2="52.707134"
   y1="16.800013"
   x1="47.607098"
   class="st2" />
<line
   style="fill:none;stroke:#222222;stroke-linecap:round;stroke-linejoin:round;stroke-miterlimit:10"
   id="line14663"
   y2="16.800013"
   x2="61.30711"
   y1="16.800013"
   x1="56.207134"
   class="st2" />
<g
   transform="translate(-500.49288,-323.9)"
   id="g14665">
	<rect
   style="fill:none;stroke:#222222;stroke-linecap:round;stroke-linejoin:round;stroke-miterlimit:10"
   id="rect14667"
   height="5.5"
   width="5.5"
   class="st2"
   y="347.79999"
   x="531" />
	<rect
   style="fill:none;stroke:#222222;stroke-linecap:round;stroke-linejoin:round;stroke-miterlimit:10"
   id="rect14669"
   height="5.5"
   width="5.5"
   class="st2"
   y="356.39999"
   x="531" />
	<rect
   style="fill:none;stroke:#222222;stroke-linecap:round;stroke-linejoin:round;stroke-miterlimit:10"
   id="rect14671"
   height="5.5"
   width="5.5"
   class="st2"
   y="365"
   x="531" />
	<rect
   style="fill:none;stroke:#222222;stroke-linecap:round;stroke-linejoin:round;stroke-miterlimit:10"
   id="rect14673"
   height="5.5"
   width="5.5"
   class="st2"
   y="373.5"
   x="531" />
	<rect
   style="fill:none;stroke:#222222;stroke-linecap:round;stroke-linejoin:round;stroke-miterlimit:10"
   id="rect14675"
   height="5.5"
   width="5.5"
   class="st2"
   y="382.10001"
   x="531" />
</g>
<g
   transform="translate(-500.49288,-323.9)"
   id="g14677">
	<rect
   style="fill:none;stroke:#222222;stroke-linecap:round;stroke-linejoin:round;stroke-miterlimit:10"
   id="rect14679"
   height="5.5"
   width="5.5"
   class="st2"
   y="347.79999"
   x="539.59998" />
	<rect
   style="fill:none;stroke:#222222;stroke-linecap:round;stroke-linejoin:round;stroke-miterlimit:10"
   id="rect14681"
   height="5.5"
   width="5.5"
   class="st2"
   y="356.39999"
   x="539.59998" />
	<polyline
   style="fill:none;stroke:#222222;stroke-linecap:round;stroke-linejoin:round;stroke-miterlimit:10"
   id="polyline14683"
   points="543.8,370.5 539.6,370.5 539.6,365 545.1,365 545.1,367.3  "
   class="st2" />
	<polyline
   style="fill:none;stroke:#222222;stroke-linecap:round;stroke-linejoin:round;stroke-miterlimit:10"
   id="polyline14685"
   points="543.8,379 539.6,379 539.6,373.5 544.1,373.5  "
   class="st2" />
	<polyline
   style="fill:none;stroke:#222222;stroke-linecap:round;stroke-linejoin:round;stroke-miterlimit:10"
   id="polyline14687"
   points="545.1,384.8 545.1,387.6 539.6,387.6 539.6,382.1 543.7,382.1  "
   class="st2" />
</g>
<g
   transform="translate(-500.49288,-323.9)"
   id="g14689">
	<rect
   style="fill:none;stroke:#222222;stroke-linecap:round;stroke-linejoin:round;stroke-miterlimit:10"
   id="rect14691"
   height="5.5"
   width="5.5"
   class="st2"
   y="347.79999"
   x="547.90002" />
	<polyline
   style="fill:none;stroke:#222222;stroke-linecap:round;stroke-linejoin:round;stroke-miterlimit:10"
   id="polyline14693"
   points="547.9,361.9 547.9,356.4 553.4,356.4  "
   class="st2" />
</g>
<polyline
   transform="translate(-500.49288,-323.9)"
   style="fill:none;stroke:#222222;stroke-linecap:round;stroke-linejoin:round;stroke-miterlimit:10"
   id="polyline14695"
   points="557.7,353.3 556.3,353.3 556.3,347.8 561.8,347.8 561.8,351.3 "
   class="st2" />
<g
   transform="translate(-500.49288,-323.9)"
   id="g14697">
	<rect
   style="fill:none;stroke:#222222;stroke-linecap:round;stroke-linejoin:round;stroke-miterlimit:10"
   id="rect14699"
   height="5.5"
   width="5.5"
   class="st2"
   y="347.79999"
   x="522.59998" />
	<rect
   style="fill:none;stroke:#222222;stroke-linecap:round;stroke-linejoin:round;stroke-miterlimit:10"
   id="rect14701"
   height="5.5"
   width="5.5"
   class="st2"
   y="356.39999"
   x="522.59998" />
	<rect
   style="fill:none;stroke:#222222;stroke-linecap:round;stroke-linejoin:round;stroke-miterlimit:10"
   id="rect14703"
   height="5.5"
   width="5.5"
   class="st2"
   y="365"
   x="522.59998" />
	<rect
   style="fill:none;stroke:#222222;stroke-linecap:round;stroke-linejoin:round;stroke-miterlimit:10"
   id="rect14705"
   height="5.5"
   width="5.5"
   class="st2"
   y="373.5"
   x="522.59998" />
	<rect
   style="fill:none;stroke:#222222;stroke-linecap:round;stroke-linejoin:round;stroke-miterlimit:10"
   id="rect14707"
   height="5.5"
   width="5.5"
   class="st2"
   y="382.10001"
   x="522.59998" />
</g>
<rect
   style="fill:none;stroke:#222222;stroke-linecap:round;stroke-linejoin:round;stroke-miterlimit:10"
   id="rect14709"
   height="5.5"
   width="5.5"
   class="st2"
   y="23.899988"
   x="13.407146" />
<rect
   style="fill:#e44838;stroke:#222222;stroke-linecap:round;stroke-linejoin:round;stroke-miterlimit:10"
   id="rect14711"
   height="5.5"
   width="5.5"
   class="st0"
   y="32.499992"
   x="13.407146" />
<rect
   style="fill:none;stroke:#222222;stroke-linecap:round;stroke-linejoin:round;stroke-miterlimit:10"
   id="rect14713"
   height="5.5"
   width="5.5"
   class="st2"
   y="41.099998"
   x="13.407146" />
<rect
   style="fill:none;stroke:#222222;stroke-linecap:round;stroke-linejoin:round;stroke-miterlimit:10"
   id="rect14715"
   height="5.5"
   width="5.5"
   class="st2"
   y="49.599998"
   x="13.407146" />
<rect
   style="fill:none;stroke:#222222;stroke-linecap:round;stroke-linejoin:round;stroke-miterlimit:10"
   id="rect14717"
   height="5.5"
   width="5.5"
   class="st2"
   y="58.200005"
   x="13.407146" />
<g
   transform="translate(-500.49288,-323.9)"
   id="g14719">
	<rect
   style="fill:none;stroke:#222222;stroke-linecap:round;stroke-linejoin:round;stroke-miterlimit:10"
   id="rect14721"
   height="5.5"
   width="5.5"
   class="st2"
   y="347.79999"
   x="505.29999" />
	<rect
   style="fill:none;stroke:#222222;stroke-linecap:round;stroke-linejoin:round;stroke-miterlimit:10"
   id="rect14723"
   height="5.5"
   width="5.5"
   class="st2"
   y="356.39999"
   x="505.29999" />
	<rect
   style="fill:none;stroke:#222222;stroke-linecap:round;stroke-linejoin:round;stroke-miterlimit:10"
   id="rect14725"
   height="5.5"
   width="5.5"
   class="st2"
   y="365"
   x="505.29999" />
	<polyline
   style="fill:none;stroke:#222222;stroke-linecap:round;stroke-linejoin:round;stroke-miterlimit:10"
   id="polyline14727"
   points="505.3,378 505.3,373.5 510.8,373.5 510.8,378  "
   class="st2" />
</g>
<polyline
   transform="translate(-500.49288,-323.9)"
   style="fill:none;stroke:#222222;stroke-linecap:round;stroke-linejoin:round;stroke-miterlimit:10"
   id="polyline14729"
   points="501,380.6 512.2,380.6 512.2,391.9 "
   class="st2" />
<polyline
   transform="translate(-500.49288,-323.9)"
   style="fill:none;stroke:#222222;stroke-linecap:round;stroke-linejoin:round;stroke-miterlimit:10"
   id="polyline14731"
   points="568.7,363.3 568.7,375.6 576.9,383.5 "
   class="st2" />
<circle
   style="fill:none;stroke:#222222;stroke-linecap:round;stroke-linejoin:round;stroke-miterlimit:10"
   id="circle14733"
   r="0.69999999"
   cy="35.200005"
   cx="68.307106"
   class="st2" />
<circle
   style="fill:none;stroke:#222222;stroke-linecap:round;stroke-linejoin:round;stroke-miterlimit:10"
   id="circle14735"
   r="0.69999999"
   cy="37.399986"
   cx="60.107098"
   class="st2" />
<circle
   style="fill:none;stroke:#222222;stroke-linecap:round;stroke-linejoin:round;stroke-miterlimit:10"
   id="circle14737"
   r="0.69999999"
   cy="43.399986"
   cx="54.107098"
   class="st2" />
<circle
   style="fill:none;stroke:#222222;stroke-linecap:round;stroke-linejoin:round;stroke-miterlimit:10"
   id="circle14739"
   r="0.69999999"
   cy="51.599998"
   cx="51.80711"
   class="st2" />
<circle
   style="fill:none;stroke:#222222;stroke-linecap:round;stroke-linejoin:round;stroke-miterlimit:10"
   id="circle14741"
   r="0.69999999"
   cy="59.800011"
   cx="54.007122"
   class="st2" />
<circle
   style="fill:none;stroke:#222222;stroke-linecap:round;stroke-linejoin:round;stroke-miterlimit:10"
   id="circle14743"
   r="0.69999999"
   cy="65.800011"
   cx="59.907146"
   class="st2" />
<circle
   style="fill:none;stroke:#222222;stroke-linecap:round;stroke-linejoin:round;stroke-miterlimit:10"
   id="circle14745"
   r="0.69999999"
   cy="68.099998"
   cx="68.107094"
   class="st2" />
<circle
   style="fill:none;stroke:#222222;stroke-linecap:round;stroke-linejoin:round;stroke-miterlimit:10"
   id="circle14747"
   r="0.69999999"
   cy="65.899986"
   cx="76.407143"
   class="st2" />
<circle
   style="fill:none;stroke:#222222;stroke-linecap:round;stroke-linejoin:round;stroke-miterlimit:10"
   id="circle14749"
   r="0.69999999"
   cy="59.999992"
   cx="82.407143"
   class="st2" />
<circle
   style="fill:none;stroke:#222222;stroke-linecap:round;stroke-linejoin:round;stroke-miterlimit:10"
   id="circle14751"
   r="0.69999999"
   cy="51.800011"
   cx="84.70713"
   class="st2" />
<circle
   style="fill:none;stroke:#222222;stroke-linecap:round;stroke-linejoin:round;stroke-miterlimit:10"
   id="circle14753"
   r="0.69999999"
   cy="43.499992"
   cx="82.507118"
   class="st2" />
<circle
   style="fill:none;stroke:#222222;stroke-linecap:round;stroke-linejoin:round;stroke-miterlimit:10"
   id="circle14755"
   r="0.69999999"
   cy="37.499992"
   cx="76.507118"
   class="st2" />
</svg>