<?xml version="1.0" encoding="utf-8"?>
<!-- Generator: Adobe Illustrator 22.0.1, SVG Export Plug-In . SVG Version: 6.00 Build 0)  -->
<svg version="1.1" id="Layer_1" xmlns="http://www.w3.org/2000/svg" xmlns:xlink="http://www.w3.org/1999/xlink" x="0px" y="0px"
	 viewBox="0 0 89.6 55.8" enable-background="new 0 0 89.6 55.8" xml:space="preserve">
<g>
	<path fill="#E44838" d="M89.6,44.7c0-0.1-0.1-0.2-0.2-0.3l-3.1-1.8l0-0.1c0.3-1.1,0.4-2.2,0.4-3.3s-0.1-2.3-0.4-3.3l0-0.1l3.1-1.8
		c0.1-0.1,0.2-0.2,0.2-0.3c0-0.1,0-0.3-0.1-0.4l-2.8-4.9c-0.1-0.1-0.2-0.2-0.3-0.2c-0.1,0-0.3,0-0.4,0.1L83,29.9l-0.1-0.1
		c-1.6-1.6-3.6-2.8-5.8-3.3l-0.1,0V23c0-0.3-0.2-0.5-0.5-0.5h-5.6c-0.3,0-0.5,0.2-0.5,0.5v3.4l-0.1,0c-2.2,0.6-4.2,1.7-5.8,3.3
		l-0.1,0.1l-3.1-1.8c-0.1-0.1-0.3-0.1-0.4-0.1c-0.1,0-0.2,0.1-0.3,0.2l-2.8,4.9c-0.1,0.1-0.1,0.3-0.1,0.4s0.1,0.2,0.2,0.3l3.1,1.8
		l0,0.1c-0.3,1.1-0.4,2.2-0.4,3.3c0,1.1,0.1,2.3,0.4,3.3l0,0.1l-3.1,1.8c-0.1,0.1-0.2,0.2-0.2,0.3s0,0.3,0.1,0.4l2.8,4.9
		c0.1,0.1,0.2,0.2,0.3,0.2c0.1,0,0.3,0,0.4,0l3.1-1.8l0.1,0.1c1.6,1.6,3.6,2.8,5.8,3.3l0.1,0v3.4c0,0.3,0.2,0.5,0.5,0.5h5.6
		c0.3,0,0.5-0.2,0.5-0.5v-3.4l0.1,0c2.2-0.6,4.2-1.7,5.8-3.3l0.1-0.1l3.1,1.8c0.1,0.1,0.3,0.1,0.4,0.1c0.1,0,0.2-0.1,0.3-0.2
		l2.8-4.9C89.6,45,89.6,44.9,89.6,44.7z M73.6,43.6c-2.4,0-4.4-2-4.4-4.4s2-4.4,4.4-4.4c2.4,0,4.4,2,4.4,4.4S76,43.6,73.6,43.6z"/>
	<path fill="#E44838" d="M62.1,21.8l-1.4-0.4l0-0.1c-0.1-0.5-0.2-1-0.4-1.4l0-0.1l1-1c0.1-0.1,0.1-0.2,0.1-0.4s-0.1-0.3-0.1-0.4
		l-3-3c-0.2-0.2-0.5-0.2-0.7,0l-1,1l-0.1,0c-0.5-0.2-0.9-0.3-1.5-0.4l-0.1,0l-0.4-1.4c0-0.1-0.1-0.2-0.2-0.3
		c-0.1-0.1-0.2-0.1-0.4-0.1l-4.1,1.1c-0.1,0-0.2,0.1-0.3,0.2c-0.1,0.1-0.1,0.3-0.1,0.4l0.4,1.4L49.7,17c-0.2,0.2-0.4,0.3-0.6,0.5
		c-0.2,0.2-0.3,0.4-0.5,0.6l-0.1,0.1l-1.4-0.4c-0.3-0.1-0.5,0.1-0.6,0.4l-1.1,4.1c-0.1,0.3,0.1,0.5,0.4,0.6l1.4,0.4l0,0.1
		c0.1,0.5,0.2,1,0.4,1.4l0,0.1l-1,1c-0.1,0.1-0.1,0.2-0.1,0.4c0,0.1,0.1,0.3,0.1,0.4l3,3c0.2,0.2,0.5,0.2,0.7,0l1-1l0.1,0
		c0.5,0.2,0.9,0.3,1.4,0.4l0.1,0l0.4,1.4c0,0.1,0.1,0.2,0.2,0.3c0.1,0.1,0.2,0.1,0.4,0.1l4.1-1.1c0.3-0.1,0.4-0.3,0.4-0.6l-0.4-1.4
		l0.1-0.1c0.2-0.2,0.4-0.3,0.6-0.5c0.2-0.2,0.3-0.4,0.5-0.6l0.1-0.1l1.4,0.4c0.1,0,0.3,0,0.4-0.1c0.1-0.1,0.2-0.2,0.2-0.3l1.1-4.1
		C62.5,22.1,62.3,21.8,62.1,21.8z M53.9,24.6c-1.3,0-2.3-1-2.3-2.3s1-2.3,2.3-2.3s2.3,1,2.3,2.3S55.2,24.6,53.9,24.6z"/>
	<path fill="#222222" d="M73.6,33.7c-3,0-5.4,2.4-5.4,5.4s2.4,5.4,5.4,5.4s5.4-2.4,5.4-5.4S76.6,33.7,73.6,33.7z M73.6,43.6
		c-2.4,0-4.4-2-4.4-4.4s2-4.4,4.4-4.4c2.4,0,4.4,2,4.4,4.4S76,43.6,73.6,43.6z"/>
	<path fill="#222222" d="M73.6,29.5c-0.3,0-0.5,0.2-0.5,0.5c0,0.3,0.2,0.5,0.5,0.5c4.8,0,8.6,3.9,8.6,8.6c0,0.3,0.2,0.5,0.5,0.5
		s0.5-0.2,0.5-0.5C83.3,33.8,78.9,29.5,73.6,29.5z"/>
	<path fill="#222222" d="M73.6,47.8c-4.8,0-8.6-3.9-8.6-8.6c0-0.3-0.2-0.5-0.5-0.5S64,38.9,64,39.2c0,5.3,4.3,9.6,9.6,9.6
		c0.3,0,0.5-0.2,0.5-0.5S73.9,47.8,73.6,47.8z"/>
	<path fill="#222222" d="M73.7,38.7L73.7,38.7c-0.3,0-0.5,0.2-0.5,0.5s0.2,0.5,0.5,0.5c0.3,0,0.5-0.2,0.5-0.5S73.9,38.7,73.7,38.7z"
		/>
	<path fill="#222222" d="M54,21.8L54,21.8c-0.3,0-0.5,0.2-0.5,0.5c0,0.3,0.2,0.5,0.5,0.5c0.3,0,0.5-0.2,0.5-0.5
		C54.5,22,54.2,21.8,54,21.8z"/>
	<path fill="#222222" d="M13.2,8.4H7.5C7.3,8.4,7,8.7,7,8.9s0.2,0.5,0.5,0.5h5.6c0.3,0,0.5-0.2,0.5-0.5S13.4,8.4,13.2,8.4z"/>
	<path fill="#222222" d="M42.7,12.7H18.8c-0.3,0-0.5,0.2-0.5,0.5s0.2,0.5,0.5,0.5h23.9c0.3,0,0.5-0.2,0.5-0.5S43,12.7,42.7,12.7z"/>
	<path fill="#222222" d="M16,12.7h-7c-0.3,0-0.5,0.2-0.5,0.5s0.2,0.5,0.5,0.5h7c0.3,0,0.5-0.2,0.5-0.5S16.2,12.7,16,12.7z"/>
	<path fill="#222222" d="M40.4,17.4c0-0.3-0.2-0.5-0.5-0.5h-4.2c-0.3,0-0.5,0.2-0.5,0.5c0,0.3,0.2,0.5,0.5,0.5h4.2
		C40.1,17.9,40.4,17.7,40.4,17.4z"/>
	<path fill="#222222" d="M10.3,17.9h22.5c0.3,0,0.5-0.2,0.5-0.5c0-0.3-0.2-0.5-0.5-0.5H10.3c-0.3,0-0.5,0.2-0.5,0.5
		C9.8,17.7,10.1,17.9,10.3,17.9z"/>
	<path fill="#222222" d="M10.3,26.3h4.2c0.3,0,0.5-0.2,0.5-0.5c0-0.3-0.2-0.5-0.5-0.5h-4.2c-0.3,0-0.5,0.2-0.5,0.5
		C9.8,26.1,10.1,26.3,10.3,26.3z"/>
	<path fill="#222222" d="M17.4,26.3h20.9c0.3,0,0.5-0.2,0.5-0.5c0-0.3-0.2-0.5-0.5-0.5H17.4c-0.3,0-0.5,0.2-0.5,0.5
		C16.9,26.1,17.1,26.3,17.4,26.3z"/>
	<path fill="#222222" d="M9.8,42.7c0,0.3,0.2,0.5,0.5,0.5h4.2c0.3,0,0.5-0.2,0.5-0.5c0-0.3-0.2-0.5-0.5-0.5h-4.2
		C10.1,42.2,9.8,42.4,9.8,42.7z"/>
	<path fill="#222222" d="M36.8,42.2H17.4c-0.3,0-0.5,0.2-0.5,0.5c0,0.3,0.2,0.5,0.5,0.5h19.5c0.3,0,0.5-0.2,0.5-0.5
		C37.3,42.4,37.1,42.2,36.8,42.2z"/>
	<path fill="#222222" d="M30,21.1H11.7c-0.3,0-0.5,0.2-0.5,0.5s0.2,0.5,0.5,0.5H30c0.3,0,0.5-0.2,0.5-0.5S30.3,21.1,30,21.1z"/>
	<path fill="#222222" d="M42.7,29.5H28.6c-0.3,0-0.5,0.2-0.5,0.5c0,0.3,0.2,0.5,0.5,0.5h14.1c0.3,0,0.5-0.2,0.5-0.5
		C43.2,29.7,43,29.5,42.7,29.5z"/>
	<path fill="#222222" d="M31.4,33.7H8.9c-0.3,0-0.5,0.2-0.5,0.5c0,0.3,0.2,0.5,0.5,0.5h22.5c0.3,0,0.5-0.2,0.5-0.5
		C31.9,34,31.7,33.7,31.4,33.7z"/>
	<path fill="#222222" d="M24.9,46.9c0-0.3-0.2-0.5-0.5-0.5H8.9c-0.3,0-0.5,0.2-0.5,0.5s0.2,0.5,0.5,0.5h15.5
		C24.7,47.4,24.9,47.2,24.9,46.9z"/>
	<path fill="#222222" d="M48.8,38.5c0-0.3-0.2-0.5-0.5-0.5H27.2c-0.3,0-0.5,0.2-0.5,0.5s0.2,0.5,0.5,0.5h21.1
		C48.6,39,48.8,38.7,48.8,38.5z"/>
	<path fill="#222222" d="M24.9,38.5c0-0.3-0.2-0.5-0.5-0.5H10.3c-0.3,0-0.5,0.2-0.5,0.5s0.2,0.5,0.5,0.5h14.1
		C24.7,39,24.9,38.7,24.9,38.5z"/>
	<path fill="#222222" d="M7.5,51.6h5.6c0.3,0,0.5-0.2,0.5-0.5s-0.2-0.5-0.5-0.5H7.5c-0.3,0-0.5,0.2-0.5,0.5S7.3,51.6,7.5,51.6z"/>
	<path fill="#222222" d="M34.2,34.7h11.2c0.3,0,0.5-0.2,0.5-0.5c0-0.3-0.2-0.5-0.5-0.5H34.2c-0.3,0-0.5,0.2-0.5,0.5
		C33.7,34.5,34,34.7,34.2,34.7z"/>
	<path fill="#222222" d="M10.3,30.5h15.5c0.3,0,0.5-0.2,0.5-0.5c0-0.3-0.2-0.5-0.5-0.5H10.3c-0.3,0-0.5,0.2-0.5,0.5
		C9.8,30.3,10.1,30.5,10.3,30.5z"/>
	<path fill="#222222" d="M89.3,44.4l-3.1-1.8l0-0.1c0.3-1.1,0.4-2.2,0.4-3.3s-0.1-2.3-0.4-3.3l0-0.1l3.1-1.8
		c0.1-0.1,0.2-0.2,0.2-0.3c0-0.1,0-0.3-0.1-0.4l-2.8-4.9c-0.1-0.1-0.2-0.2-0.3-0.2c-0.1,0-0.3,0-0.4,0.1L83,29.9l-0.1-0.1
		c-1.6-1.6-3.6-2.8-5.8-3.3l-0.1,0V23c0-0.3-0.2-0.5-0.5-0.5h-5.6c-0.3,0-0.5,0.2-0.5,0.5v3.4l-0.1,0c-2.2,0.6-4.2,1.7-5.8,3.3
		l-0.1,0.1l-3.1-1.8c-0.1-0.1-0.3-0.1-0.4-0.1c-0.1,0-0.2,0.1-0.3,0.2l-2.8,4.9c-0.1,0.1-0.1,0.3-0.1,0.4s0.1,0.2,0.2,0.3l3.1,1.8
		l0,0.1c-0.3,1.1-0.4,2.2-0.4,3.3c0,1.1,0.1,2.3,0.4,3.3l0,0.1l-3.1,1.8c-0.1,0.1-0.2,0.2-0.2,0.3s0,0.3,0.1,0.4l2.8,4.9
		c0.1,0.1,0.2,0.2,0.3,0.2c0.1,0,0.3,0,0.4,0l3.1-1.8l0.1,0.1c1.6,1.6,3.6,2.8,5.8,3.3l0.1,0v3.4c0,0.3,0.2,0.5,0.5,0.5h5.6
		c0.3,0,0.5-0.2,0.5-0.5v-3.4l0.1,0c2.2-0.6,4.2-1.7,5.8-3.3l0.1-0.1l3.1,1.8c0.1,0.1,0.3,0.1,0.4,0.1c0.1,0,0.2-0.1,0.3-0.2
		l2.8-4.9c0.1-0.1,0.1-0.3,0.1-0.4C89.5,44.6,89.5,44.5,89.3,44.4z M86.1,49l-3-1.7c-0.2-0.1-0.5-0.1-0.6,0.1
		c-1.7,1.8-3.8,3-6.2,3.6c-0.2,0.1-0.4,0.3-0.4,0.5v3.3h-4.6v-3.3c0-0.2-0.2-0.4-0.4-0.5c-2.4-0.5-4.5-1.8-6.2-3.6
		c-0.2-0.2-0.4-0.2-0.6-0.1l-3,1.7l-2.3-4l3-1.7c0.2-0.1,0.3-0.4,0.2-0.6c-0.4-1.2-0.5-2.4-0.5-3.6c0-1.2,0.2-2.4,0.5-3.6
		c0.1-0.2,0-0.5-0.2-0.6l-3-1.7l2.3-4l3,1.7c0.2,0.1,0.5,0.1,0.6-0.1c1.7-1.8,3.8-3,6.2-3.6c0.2-0.1,0.4-0.3,0.4-0.5v-3.3h4.6v3.3
		c0,0.2,0.2,0.4,0.4,0.5c2.4,0.5,4.5,1.8,6.2,3.6c0.2,0.2,0.4,0.2,0.6,0.1l3-1.7l2.3,4l-3,1.7c-0.2,0.1-0.3,0.4-0.2,0.6
		c0.4,1.2,0.5,2.4,0.5,3.6c0,1.2-0.2,2.4-0.5,3.6c-0.1,0.2,0,0.5,0.2,0.6l3,1.7L86.1,49z"/>
	<path fill="#222222" d="M61.1,26.8c0.1-0.1,0.2-0.2,0.2-0.3l1.1-4.1c0.1-0.3-0.1-0.5-0.4-0.6l-1.4-0.4l0-0.1
		c-0.1-0.5-0.2-1-0.4-1.4l0-0.1l1-1c0.1-0.1,0.1-0.2,0.1-0.4s-0.1-0.3-0.1-0.4l-3-3c-0.2-0.2-0.5-0.2-0.7,0l-1,1l-0.1,0
		c-0.5-0.2-0.9-0.3-1.5-0.4l-0.1,0l-0.4-1.4c0-0.1-0.1-0.2-0.2-0.3c-0.1-0.1-0.2-0.1-0.4-0.1l-4.1,1.1c-0.1,0-0.2,0.1-0.3,0.2
		c-0.1,0.1-0.1,0.3-0.1,0.4l0.4,1.4L49.7,17c-0.2,0.2-0.4,0.3-0.6,0.5c-0.2,0.2-0.3,0.4-0.5,0.6l-0.1,0.1l-1.4-0.4
		c-0.3-0.1-0.5,0.1-0.6,0.4l-1.1,4.1c-0.1,0.3,0.1,0.5,0.4,0.6l1.4,0.4l0,0.1c0.1,0.5,0.2,1,0.4,1.4l0,0.1l-1,1
		c-0.1,0.1-0.1,0.2-0.1,0.4c0,0.1,0.1,0.3,0.1,0.4l3,3c0.2,0.2,0.5,0.2,0.7,0l1-1l0.1,0c0.5,0.2,0.9,0.3,1.4,0.4l0.1,0l0.4,1.4
		c0,0.1,0.1,0.2,0.2,0.3c0.1,0.1,0.2,0.1,0.4,0.1l4.1-1.1c0.3-0.1,0.4-0.3,0.4-0.6l-0.4-1.4l0.1-0.1c0.2-0.2,0.4-0.3,0.6-0.5
		c0.2-0.2,0.3-0.4,0.5-0.6l0.1-0.1l1.4,0.4C60.8,26.9,61,26.8,61.1,26.8z M59.3,25.4c-0.2-0.1-0.4,0-0.5,0.2v0
		c-0.2,0.3-0.4,0.6-0.7,0.8c-0.2,0.2-0.5,0.4-0.8,0.7C57,27.2,57,27.4,57,27.6l0.3,1.2l-3.1,0.8l-0.3-1.3c-0.1-0.2-0.2-0.4-0.4-0.4
		c-0.7-0.1-1.4-0.2-2-0.5c-0.2-0.1-0.4,0-0.6,0.1L50,28.5l-2.3-2.3l0.9-0.9c0.1-0.1,0.2-0.4,0.1-0.6c-0.3-0.6-0.5-1.3-0.5-2
		c0-0.2-0.2-0.4-0.4-0.4L46.5,22l0.8-3.1l1.2,0.3c0.2,0.1,0.4,0,0.5-0.2c0.2-0.3,0.4-0.6,0.7-0.8c0.2-0.2,0.5-0.5,0.8-0.7
		c0.2-0.1,0.3-0.3,0.2-0.5l-0.3-1.2l3.1-0.8l0.3,1.3c0.1,0.2,0.2,0.4,0.4,0.4c0.7,0.1,1.4,0.2,2,0.5c0.2,0.1,0.4,0.1,0.6-0.1
		l0.9-0.9l2.3,2.3l-0.9,0.9c-0.1,0.1-0.2,0.4-0.1,0.6c0.3,0.6,0.5,1.3,0.5,2c0,0.2,0.2,0.4,0.4,0.4l1.2,0.3l-0.8,3.1L59.3,25.4z"/>
	<path fill="#222222" d="M53.9,19c-1.8,0-3.3,1.5-3.3,3.3c0,1.8,1.5,3.3,3.3,3.3s3.3-1.5,3.3-3.3C57.2,20.5,55.8,19,53.9,19z
		 M53.9,24.6c-1.3,0-2.3-1-2.3-2.3s1-2.3,2.3-2.3s2.3,1,2.3,2.3S55.2,24.6,53.9,24.6z"/>
	<g>
		<path fill="#222222" d="M3.4,1.4L3.4,1.4c-0.3,0-0.5,0.2-0.5,0.5c0,0.3,0.2,0.5,0.5,0.5c0.3,0,0.5-0.2,0.5-0.5S3.6,1.4,3.4,1.4z"
			/>
		<path fill="#222222" d="M9,1.4L9,1.4c-0.3,0-0.5,0.2-0.5,0.5c0,0.3,0.2,0.5,0.5,0.5c0.3,0,0.5-0.2,0.5-0.5S9.3,1.4,9,1.4z"/>
		<path fill="#222222" d="M72.2,0H1.9C0.9,0,0,0.9,0,1.9v53.4c0,0.3,0.2,0.5,0.5,0.5h66.1c0.3,0,0.5-0.2,0.5-0.5s-0.2-0.5-0.5-0.5
			H3.8v-51h69.3v14.3c0,0.3,0.2,0.5,0.5,0.5s0.5-0.2,0.5-0.5V1.9C74.1,0.9,73.3,0,72.2,0z M2.8,54.8H1v-3.2h0.9
			c0.3,0,0.5-0.2,0.5-0.5s-0.2-0.5-0.5-0.5H1v-3.2h0.9c0.3,0,0.5-0.2,0.5-0.5s-0.2-0.5-0.5-0.5H1v-3.2h0.9c0.3,0,0.5-0.2,0.5-0.5
			c0-0.3-0.2-0.5-0.5-0.5H1V39h0.9c0.3,0,0.5-0.2,0.5-0.5S2.2,38,1.9,38H1v-3.2h0.9c0.3,0,0.5-0.2,0.5-0.5c0-0.3-0.2-0.5-0.5-0.5H1
			v-3.2h0.9c0.3,0,0.5-0.2,0.5-0.5c0-0.3-0.2-0.5-0.5-0.5H1v-3.2h0.9c0.3,0,0.5-0.2,0.5-0.5c0-0.3-0.2-0.5-0.5-0.5H1v-3.2h0.9
			c0.3,0,0.5-0.2,0.5-0.5s-0.2-0.5-0.5-0.5H1v-3.2h0.9c0.3,0,0.5-0.2,0.5-0.5c0-0.3-0.2-0.5-0.5-0.5H1v-3.2h0.9
			c0.3,0,0.5-0.2,0.5-0.5s-0.2-0.5-0.5-0.5H1V9.4h0.9c0.3,0,0.5-0.2,0.5-0.5S2.2,8.4,1.9,8.4H1V3.8h1.8V54.8z M73.1,2.8H9H1V1.9
			C1,1.4,1.4,1,1.9,1h70.3c0.5,0,0.9,0.4,0.9,0.9V2.8z"/>
		<path fill="#222222" d="M6.2,1.4L6.2,1.4c-0.3,0-0.5,0.2-0.5,0.5c0,0.3,0.2,0.5,0.5,0.5c0.3,0,0.5-0.2,0.5-0.5S6.4,1.4,6.2,1.4z"
			/>
	</g>
</g>
</svg>
