<?xml version="1.0" encoding="UTF-8" standalone="no"?>
<svg
   xmlns:dc="http://purl.org/dc/elements/1.1/"
   xmlns:cc="http://creativecommons.org/ns#"
   xmlns:rdf="http://www.w3.org/1999/02/22-rdf-syntax-ns#"
   xmlns:svg="http://www.w3.org/2000/svg"
   xmlns="http://www.w3.org/2000/svg"
   height="70.120201"
   width="70.97065"
   xml:space="preserve"
   viewBox="0 0 70.97065 70.120201"
   y="0px"
   x="0px"
   id="Layer_1"
   version="1.1"><metadata
   id="metadata14822"><rdf:RDF><cc:Work
       rdf:about=""><dc:format>image/svg+xml</dc:format><dc:type
         rdf:resource="http://purl.org/dc/dcmitype/StillImage" /><dc:title></dc:title></cc:Work></rdf:RDF></metadata><defs
   id="defs14820" />
<style
   id="style14764"
   type="text/css">
	.st0{fill:#E44838;}
	.st1{fill:#F9F9FA;}
	.st2{fill:none;stroke:#222222;stroke-linecap:round;stroke-linejoin:round;stroke-miterlimit:10;}
	.st3{fill:#E44838;stroke:#222222;stroke-linecap:round;stroke-linejoin:round;stroke-miterlimit:10;}
</style>
<g
   transform="translate(-230.5344,-512.29495)"
   id="g14766">
	
		<rect
   style="fill:#e44838"
   id="rect14768"
   height="5.5"
   width="21.299999"
   class="st0"
   transform="matrix(0.7071,-0.7071,0.7071,0.7071,-309.3555,330.6323)"
   y="536"
   x="233.8" />
</g>
<g
   transform="translate(-230.5344,-512.29495)"
   id="g14770">
	<polygon
   style="fill:#e44838"
   id="polygon14772"
   points="296.9,542.4 282.2,527.9 278.4,531.8 293.3,546.5 "
   class="st0" />
</g>
<g
   transform="translate(-230.5344,-512.29495)"
   id="g14774">
	<path
   style="fill:#f9f9fa"
   id="path14776"
   d="m 291.7,544.9 0,0 c -1,5.6 -2.9,11.5 -5.6,15.8 l -16.2,-16.2 -4,1.6 c 0,0 -7.3,5.7 -9,4 -1.7,-1.7 0.1,-3.9 0.1,-3.9 0,0 9.3,-9 12.3,-10.1 2.9,-1.1 10.1,-3.6 10.1,-3.6 l 12.3,12.4 z"
   class="st1" />
	<path
   style="fill:#f9f9fa"
   id="path14778"
   d="m 264.3,570.1 c 0,0.6 -0.2,1.3 -0.7,1.8 l -3.4,3.4 c -1,1 -2.6,1 -3.6,0 -1,-1 -1,-2.6 0,-3.6 l 3.4,-3.4 c 1,-1 2.6,-1 3.6,0 0.5,0.5 0.7,1.1 0.7,1.8 z"
   class="st1" />
	<path
   style="fill:#f9f9fa"
   id="path14780"
   d="m 269.4,575.2 c 0,0.6 -0.2,1.3 -0.7,1.8 l -3.4,3.4 c -1,1 -2.6,1 -3.6,0 -1,-1 -1,-2.6 0,-3.6 l 3.4,-3.4 c 1,-1 2.6,-1 3.6,0 0.5,0.5 0.7,1.1 0.7,1.8 z"
   class="st1" />
	<path
   style="fill:#f9f9fa"
   id="path14782"
   d="m 259.1,564.8 c 0,0.6 -0.3,1.3 -0.7,1.8 L 255,570 c -1,1 -2.6,1 -3.6,0 -1,-1 -1,-2.6 0,-3.6 l 3.4,-3.4 c 1,-1 2.6,-1 3.6,0 0.4,0.5 0.7,1.1 0.7,1.8 z"
   class="st1" />
	<path
   style="fill:#f9f9fa"
   id="path14784"
   d="m 251.8,560.6 c 0,0.6 -0.2,1.3 -0.7,1.8 l -1.9,1.9 c -1,1 -2.6,1 -3.6,0 -1,-1 -1,-2.6 0,-3.6 l 1.9,-1.9 c 1,-1 2.6,-1 3.6,0 0.4,0.5 0.7,1.2 0.7,1.8 z"
   class="st1" />
</g>
<polyline
   transform="translate(-230.5344,-512.29495)"
   style="fill:none;stroke:#222222;stroke-linecap:round;stroke-linejoin:round;stroke-miterlimit:10"
   id="polyline14786"
   points="237.3,513.5 251.6,527.7 233.7,545.6 231.2,543.1 "
   class="st2" />
<polyline
   transform="translate(-230.5344,-512.29495)"
   style="fill:none;stroke:#222222;stroke-linecap:round;stroke-linejoin:round;stroke-miterlimit:10"
   id="polyline14788"
   points="250,529.3 253.9,533.2 238.8,548.2 235,544.3 "
   class="st2" />
<path
   style="fill:none;stroke:#222222;stroke-linecap:round;stroke-linejoin:round;stroke-miterlimit:10"
   id="path14790"
   d="m 46.165598,49.90505 4.7,4.7 c 1.1,1.1 1.1,2.8 0,3.9 l 0,0 c -1.1,1.1 -2.8,1.1 -3.9,0 l -4.7,-4.7"
   class="st2" />
<path
   style="fill:none;stroke:#222222;stroke-linecap:round;stroke-linejoin:round;stroke-miterlimit:10"
   id="path14792"
   d="m 40.765598,55.30505 4.7,4.7 c 1.1,1.1 1.1,2.8 0,3.9 l 0,0 c -1.1,1.1 -2.8,1.1 -3.9,0"
   class="st2" />
<path
   style="fill:none;stroke:#222222;stroke-linecap:round;stroke-linejoin:round;stroke-miterlimit:10"
   id="path14794"
   d="m 40.065598,64.90505 c 1.1,1.1 1.1,2.8 0,3.9 l 0,0 c -1.1,1.1 -2.8,1.1 -3.9,0"
   class="st2" />
<polyline
   transform="translate(-230.5344,-512.29495)"
   style="fill:none;stroke:#222222;stroke-linecap:round;stroke-linejoin:round;stroke-miterlimit:10"
   id="polyline14796"
   points="296.9,542.5 293.3,546.5 278.6,531.8 282.3,527.9 "
   class="st2" />
<polyline
   transform="translate(-230.5344,-512.29495)"
   style="fill:none;stroke:#222222;stroke-linecap:round;stroke-linejoin:round;stroke-miterlimit:10"
   id="polyline14798"
   points="301,541.9 298.7,544.2 280.7,526.2 294.1,512.8 "
   class="st2" />
<path
   style="fill:none;stroke:#222222;stroke-linecap:round;stroke-linejoin:round;stroke-miterlimit:10"
   id="path14800"
   d="m 48.765598,20.20505 c 0,0 -7.1,2.5 -10.1,3.6 -2.9,1.1 -12.3,10.1 -12.3,10.1 0,0 -1.9,2.2 -0.2,3.9 1.7,1.7 9,-4 9,-4 l 4,-1.6 17,17 c 1.1,1.1 1.1,2.8 0,3.9 l 0,0 c -1.1,1.1 -2.8,1.1 -3.9,0 l -4.7,-4.7"
   class="st2" />
<path
   style="fill:none;stroke:#222222;stroke-linecap:round;stroke-linejoin:round;stroke-miterlimit:10"
   id="path14802"
   d="m 61.165598,33.60505 c -1,5.6 -2.9,10.5 -5.6,14.9"
   class="st2" />
<path
   style="fill:none;stroke:#222222;stroke-linecap:round;stroke-linejoin:round;stroke-miterlimit:10"
   id="path14804"
   d="m 21.465598,22.80505 c 0,0 10.5,-0.8 15.2,2.1"
   class="st2" />
<path
   style="fill:none;stroke:#222222;stroke-linecap:round;stroke-linejoin:round;stroke-miterlimit:10"
   id="path14806"
   d="m 26.065598,63.00505 0,0 c -1,-1 -1,-2.6 0,-3.6 l 3.4,-3.4 c 1,-1 2.6,-1 3.6,0 l 0,0 c 1,1 1,2.6 0,3.6 l -3.4,3.4 c -1,1 -2.6,1 -3.6,0 z"
   class="st2" />
<path
   style="fill:none;stroke:#222222;stroke-linecap:round;stroke-linejoin:round;stroke-miterlimit:10"
   id="path14808"
   d="m 31.165598,68.10505 0,0 c -1,-1 -1,-2.6 0,-3.6 l 3.4,-3.4 c 1,-1 2.6,-1 3.6,0 l 0,0 c 1,1 1,2.6 0,3.6 l -3.4,3.4 c -1,1 -2.6,1 -3.6,0 z"
   class="st2" />
<path
   style="fill:none;stroke:#222222;stroke-linecap:round;stroke-linejoin:round;stroke-miterlimit:10"
   id="path14810"
   d="m 20.765598,57.70505 0,0 c -1,-1 -1,-2.6 0,-3.6 l 3.4,-3.4 c 1,-1 2.6,-1 3.6,0 l 0,0 c 1,1 1,2.6 0,3.6 l -3.4,3.4 c -1,1 -2.6,1 -3.6,0 z"
   class="st2" />
<path
   style="fill:none;stroke:#222222;stroke-linecap:round;stroke-linejoin:round;stroke-miterlimit:10"
   id="path14812"
   d="m 15.065598,52.00505 0,0 c -1,-1 -1,-2.6 0,-3.6 l 1.9,-1.9 c 1,-1 2.6,-1 3.6,0 l 0,0 c 1,1 1,2.6 0,3.6 l -1.9,1.9 c -1,0.9 -2.6,0.9 -3.6,0 z"
   class="st2" />
<path
   style="fill:none;stroke:#222222;stroke-linecap:round;stroke-linejoin:round;stroke-miterlimit:10"
   id="path14814"
   d="m 10.365598,34.50505 c 0.7,5.2 2.2,9.8 5,13.6"
   class="st2" />
<path
   style="fill:#e44838;stroke:#222222;stroke-linecap:round;stroke-linejoin:round;stroke-miterlimit:10"
   id="path14816"
   d="m 0.96559808,28.50505 0,0 c -0.6,-0.6 -0.6,-1.7 0,-2.3 l 0,0 c 0.60000002,-0.6 1.70000002,-0.6 2.30000002,0 l 0,0 c 0.6,0.6 0.6,1.7 0,2.3 l 0,0 c -0.6,0.7 -1.7,0.7 -2.30000002,0 z"
   class="st3" />
</svg>