<?xml version="1.0" encoding="UTF-8" standalone="no"?>
<svg
   xmlns:dc="http://purl.org/dc/elements/1.1/"
   xmlns:cc="http://creativecommons.org/ns#"
   xmlns:rdf="http://www.w3.org/1999/02/22-rdf-syntax-ns#"
   xmlns:svg="http://www.w3.org/2000/svg"
   xmlns="http://www.w3.org/2000/svg"
   height="12.99501"
   width="16"
   version="1.1"
   id="svg37218"
   viewBox="0 0 16 12.99501"
   role="img"
   class="svg-inline--fa fa-twitter fa-w-16"
   data-icon="twitter"
   data-prefix="fab"
   focusable="false"
   aria-hidden="true">
  <metadata
     id="metadata37226">
    <rdf:RDF>
      <cc:Work
         rdf:about="">
        <dc:format>image/svg+xml</dc:format>
        <dc:type
           rdf:resource="http://purl.org/dc/dcmitype/StillImage" />
        <dc:title></dc:title>
      </cc:Work>
    </rdf:RDF>
  </metadata>
  <defs
     id="defs37224" />
  <path
     style="fill:#ffffff"
     id="path37220"
     d="m 14.355365,3.23863 c 0.01016,0.14212 0.01016,0.28428 0.01016,0.42641 0,4.33501 -3.299482,9.32997 -9.3299741,9.32997 -1.8578822,0 -3.583764,-0.5381 -5.0355509,-1.47207 0.26396978,0.0304 0.51775202,0.0406 0.79187809,0.0406 1.53297471,0 2.94416771,-0.51776 4.07107841,-1.40101 C 3.4213259,10.13203 2.2131961,9.1879 1.7969445,7.8884 2.0000078,7.9188 2.2030399,7.9391 2.4162594,7.9391 2.7106668,7.9391 3.0051055,7.8985 3.2792003,7.82744 1.7766632,7.52284 0.64972129,6.20306 0.64972129,4.60915 l 0,-0.0406 C 1.0862542,4.81221 1.5939125,4.96449 2.1319458,4.98477 1.2486924,4.39593 0.67003387,3.39086 0.67003387,2.25379 c 0,-0.60912 0.16240688,-1.1675 0.44668923,-1.65482 C 2.7309482,2.58883 5.1573639,3.8883 7.8781558,4.03046 7.8274058,3.7868 7.7969368,3.53302 7.7969368,3.2792 7.7969368,1.47207 9.25888,0 11.076137,0 12.020297,0 12.873082,0.39594 13.472084,1.03554 14.213181,0.89341 14.92384,0.61929 15.553311,0.24366 15.309622,1.0051 14.79187,1.6447 14.11168,2.05076 14.771589,1.97976 15.411185,1.79695 16,1.54317 15.553373,2.19289 14.994965,2.77155 14.355369,3.23858 Z" />
</svg>
