<?xml version="1.0" encoding="UTF-8" standalone="no"?>
<svg
   xmlns:dc="http://purl.org/dc/elements/1.1/"
   xmlns:cc="http://creativecommons.org/ns#"
   xmlns:rdf="http://www.w3.org/1999/02/22-rdf-syntax-ns#"
   xmlns:svg="http://www.w3.org/2000/svg"
   xmlns="http://www.w3.org/2000/svg"
   xmlns:xlink="http://www.w3.org/1999/xlink"
   height="16.807203"
   width="18.077778"
   xml:space="preserve"
   viewBox="0 0 18.077778 16.807203"
   y="0px"
   x="0px"
   id="Layer_1"
   version="1.1"><metadata
   id="metadata25946"><rdf:RDF><cc:Work
       rdf:about=""><dc:format>image/svg+xml</dc:format><dc:type
         rdf:resource="http://purl.org/dc/dcmitype/StillImage" /><dc:title></dc:title></cc:Work></rdf:RDF></metadata><defs
   id="defs25944" />
<style
   id="style25928"
   type="text/css">
	.st0{clip-path:url(#SVGID_2_);fill:#222222;}
</style>
<g
   transform="translate(-254.62222,-261.99339)"
   id="g25930">
	<defs
   id="defs25932">
		<path
   d="m 272,265.9 c -4.9,0 -5.9,1.5 -8.2,3.2 0,0 0.1,-0.6 -0.5,-0.7 -0.6,-0.1 -0.7,0.4 -0.7,0.4 0,0 -0.2,-0.3 -0.3,-0.6 -0.4,-1.4 -2,-2.9 -3.8,-4.6 -1.8,-1.8 -3.5,-1.6 -3.5,-1.6 l -0.2,0.6 c -0.4,1.2 0,1.6 0,1.9 0,0.4 0.1,0.7 0.4,1.3 0.3,0.6 0.5,2.5 0.6,3.4 0.1,0.9 0.8,1.5 0.9,1.6 0.1,0.1 -0.9,0.6 -0.9,0.7 l 0,0.5 c 0,0.1 -0.3,0.4 -0.4,0.5 -0.1,0.1 -0.1,0.5 0,2 0.1,1.5 2.7,3.1 3.4,3.2 0.7,0.2 1.3,-1.2 1.7,-1.4 0.4,-0.2 1.5,-1.3 1.5,-1.3 0,0 0.3,2.9 0.3,1.8 0,-1.1 0.7,-1.4 0.7,-1.4 l 0.1,-0.8 c 0,0 0.7,2.3 1.6,3.2 0.8,0.8 2.4,1 2.6,1 0.2,0 1.2,0.1 2.1,-2.3 0.9,-2.3 -0.5,-2.9 -0.2,-2.9 0.3,0 1.4,-0.9 1.3,-1.7 -0.2,-0.8 0.6,-2.4 1.3,-3.1 0.7,-0.7 0.9,-2.7 0.9,-2.7 -0.1,0.1 -0.2,-0.2 -0.7,-0.2 z"
   id="SVGID_1_" />
	</defs>
	<use
   height="100%"
   width="100%"
   y="0"
   x="0"
   id="use25935"
   style="clip-rule:evenodd;overflow:visible;fill:#222222;fill-rule:evenodd"
   xlink:href="#SVGID_1_" />
	<clipPath
   id="SVGID_2_">
		<use
   height="100%"
   width="100%"
   y="0"
   x="0"
   id="use25938"
   style="overflow:visible"
   xlink:href="#SVGID_1_" />
	</clipPath>
	<rect
   style="fill:#222222"
   clip-path="url(#SVGID_2_)"
   id="rect25940"
   height="18.1"
   width="20.5"
   class="st0"
   y="261.39999"
   x="252.7" />
</g>
</svg>