<?xml version="1.0" encoding="UTF-8" standalone="no"?>
<svg
   xmlns:dc="http://purl.org/dc/elements/1.1/"
   xmlns:cc="http://creativecommons.org/ns#"
   xmlns:rdf="http://www.w3.org/1999/02/22-rdf-syntax-ns#"
   xmlns:svg="http://www.w3.org/2000/svg"
   xmlns="http://www.w3.org/2000/svg"
   height="17.14286"
   width="15"
   version="1.1"
   id="svg14620"
   viewBox="0 0 15 17.14286"
   role="img"
   class="svg-inline--fa fa-user fa-w-14"
   data-icon="user"
   data-prefix="fas"
   focusable="false"
   aria-hidden="true">
  <metadata
     id="metadata14628">
    <rdf:RDF>
      <cc:Work
         rdf:about="">
        <dc:format>image/svg+xml</dc:format>
        <dc:type
           rdf:resource="http://purl.org/dc/dcmitype/StillImage" />
        <dc:title></dc:title>
      </cc:Work>
    </rdf:RDF>
  </metadata>
  <defs
     id="defs14626" />
  <path
     style="fill:#dbdce0;fill-opacity:1"
     id="path14622"
     d="m 7.5,8.57143 c 2.3671875,0 4.285714,-1.91853 4.285714,-4.28571 C 11.785714,1.91853 9.8671875,0 7.5,0 5.1328125,0 3.2142857,1.91853 3.2142857,4.28572 3.2142857,6.6529 5.1328125,8.57143 7.5,8.57143 Z m 3,1.07143 -0.5591518,0 C 9.1975446,9.98438 8.3705357,10.17857 7.5,10.17857 6.6294643,10.17857 5.8058036,9.98438 5.0591518,9.64286 L 4.5,9.64286 c -2.484375,0 -4.5,2.01562 -4.5,4.5 l 0,1.39286 c 0,0.88727 0.71986607,1.60714 1.6071429,1.60714 l 11.7857141,0 C 14.280134,17.14286 15,16.42299 15,15.53572 l 0,-1.39286 c 0,-2.48438 -2.015625,-4.5 -4.5,-4.5 z" />
</svg>
