<?xml version="1.0" encoding="UTF-8" standalone="no"?>
<svg
   xmlns:dc="http://purl.org/dc/elements/1.1/"
   xmlns:cc="http://creativecommons.org/ns#"
   xmlns:rdf="http://www.w3.org/1999/02/22-rdf-syntax-ns#"
   xmlns:svg="http://www.w3.org/2000/svg"
   xmlns="http://www.w3.org/2000/svg"
   height="10.09882"
   width="17"
   version="1.1"
   id="svg14630"
   viewBox="0 0 17 10.09882"
   role="img"
   class="svg-inline--fa fa-vk fa-w-18"
   data-icon="vk"
   data-prefix="fab"
   focusable="false"
   aria-hidden="true">
  <metadata
     id="metadata14638">
    <rdf:RDF>
      <cc:Work
         rdf:about="">
        <dc:format>image/svg+xml</dc:format>
        <dc:type
           rdf:resource="http://purl.org/dc/dcmitype/StillImage" />
        <dc:title></dc:title>
      </cc:Work>
    </rdf:RDF>
  </metadata>
  <defs
     id="defs14636" />
  <path
     style="fill:#ffffff"
     id="path14632"
     d="M 16.61256,0.68483 C 16.729327,0.29034 16.61256,0 16.050813,0 l -1.858814,0 c -0.473382,0 -0.691138,0.24931 -0.807906,0.52703 0,0 -0.946764,2.30695 -2.284858,3.80284 -0.432356,0.43235 -0.631176,0.57121 -0.867867,0.57121 -0.116768,0 -0.296653,-0.13886 -0.296653,-0.53334 l 0,-3.68291 C 9.934715,0.21144 9.802168,0 9.410838,0 L 6.488492,0 C 6.191839,0 6.01511,0.22091 6.01511,0.42604 c 0,0.44814 0.669047,0.55228 0.738476,1.81464 l 0,2.7393 c 0,0.59962 -0.1073,0.71007 -0.343991,0.71007 C 5.778419,5.69005 4.244661,3.37364 3.335767,0.7227 3.152726,0.20829 2.97284,0 2.496302,0 L 0.637488,0 C 0.1073,0 0,0.24931 0,0.52703 c 0,0.49232 0.631176,2.93813 2.938126,6.16975 1.536914,2.20596 3.701849,3.40204 5.671119,3.40204 1.183455,0 1.328626,-0.26509 1.328626,-0.7227 0,-2.10813 -0.1073,-2.30695 0.486005,-2.30695 0.274562,0 0.747944,0.13886 1.852503,1.20239 1.262352,1.26236 1.470641,1.82726 2.177558,1.82726 l 1.858814,0 c 0.530188,0 0.798438,-0.26509 0.6438,-0.78897 -0.353459,-1.1014 -2.742461,-3.36733 -2.849761,-3.51881 -0.274562,-0.35346 -0.195665,-0.51125 0,-0.82684 0.0032,-0.003 2.272235,-3.19691 2.50577,-4.27937 z" />
</svg>
