<?xml version="1.0" encoding="UTF-8" standalone="no"?>
<svg
   xmlns:dc="http://purl.org/dc/elements/1.1/"
   xmlns:cc="http://creativecommons.org/ns#"
   xmlns:rdf="http://www.w3.org/1999/02/22-rdf-syntax-ns#"
   xmlns:svg="http://www.w3.org/2000/svg"
   xmlns="http://www.w3.org/2000/svg"
   height="12.47501"
   width="21"
   version="1.1"
   id="svg62766"
   viewBox="0 0 21 12.47501"
   role="img"
   class="svg-inline--fa fa-vk fa-w-18"
   data-icon="vk"
   data-prefix="fab"
   focusable="false"
   aria-hidden="true">
  <metadata
     id="metadata62774">
    <rdf:RDF>
      <cc:Work
         rdf:about="">
        <dc:format>image/svg+xml</dc:format>
        <dc:type
           rdf:resource="http://purl.org/dc/dcmitype/StillImage" />
        <dc:title></dc:title>
      </cc:Work>
    </rdf:RDF>
  </metadata>
  <defs
     id="defs62772" />
  <path
     fill="#626262"
     id="path62768"
     d="M 20.521397,0.84596 C 20.66564,0.35865 20.521397,0 19.827475,0 l -2.296182,0 c -0.584767,0 -0.853759,0.30797 -0.998001,0.65104 0,0 -1.169533,2.84976 -2.822472,4.69762 -0.534087,0.53408 -0.779689,0.70562 -1.072072,0.70562 -0.144242,0 -0.366453,-0.17154 -0.366453,-0.65884 l 0,-4.54948 C 12.272295,0.26119 12.10856,0 11.625153,0 L 8.015196,0 C 7.648743,0 7.43043,0.27289 7.43043,0.52629 c 0,0.55357 0.82647,0.68222 0.912235,2.2416 l 0,3.38385 c 0,0.7407 -0.132547,0.87715 -0.42493,0.87715 -0.779688,0 -2.674331,-2.86146 -3.797082,-6.13615 C 3.894543,0.25729 3.672332,0 3.083667,0 L 0.787485,0 C 0.132547,0 0,0.30797 0,0.65104 c 0,0.60815 0.779688,3.62945 3.629449,7.62145 1.898541,2.72501 4.572872,4.20252 7.0055,4.20252 1.461916,0 1.641244,-0.32747 1.641244,-0.89274 0,-2.60416 -0.132547,-2.84976 0.60036,-2.84976 0.339165,0 0.923931,0.17153 2.288385,1.4853 1.559377,1.55938 1.816674,2.2572 2.689925,2.2572 l 2.296183,0 c 0.654938,0 0.986305,-0.32747 0.795282,-0.97461 -0.436626,-1.36056 -3.387746,-4.15964 -3.520293,-4.34676 -0.339165,-0.43663 -0.241704,-0.63155 0,-1.02139 0.0039,-0.004 2.806878,-3.94913 3.095362,-5.28629 z" />
</svg>
