<?xml version="1.0" encoding="UTF-8" standalone="no"?>
<!-- Generator: Adobe Illustrator 22.0.1, SVG Export Plug-In . SVG Version: 6.00 Build 0)  -->

<svg
   xmlns:dc="http://purl.org/dc/elements/1.1/"
   xmlns:cc="http://creativecommons.org/ns#"
   xmlns:rdf="http://www.w3.org/1999/02/22-rdf-syntax-ns#"
   xmlns:svg="http://www.w3.org/2000/svg"
   xmlns="http://www.w3.org/2000/svg"
   xmlns:sodipodi="http://sodipodi.sourceforge.net/DTD/sodipodi-0.dtd"
   xmlns:inkscape="http://www.inkscape.org/namespaces/inkscape"
   version="1.1"
   id="Capa_1"
   x="0px"
   y="0px"
   viewBox="0 0 18.000001 18.000001"
   xml:space="preserve"
   inkscape:version="0.91 r13725"
   sodipodi:docname="wordpress.svg"
   width="18"
   height="18"><metadata
   id="metadata14631"><rdf:RDF><cc:Work
       rdf:about=""><dc:format>image/svg+xml</dc:format><dc:type
         rdf:resource="http://purl.org/dc/dcmitype/StillImage" /><dc:title></dc:title></cc:Work></rdf:RDF></metadata><defs
   id="defs14629" /><sodipodi:namedview
   pagecolor="#ffffff"
   bordercolor="#666666"
   borderopacity="1"
   objecttolerance="10"
   gridtolerance="10"
   guidetolerance="10"
   inkscape:pageopacity="0"
   inkscape:pageshadow="2"
   inkscape:window-width="1920"
   inkscape:window-height="1018"
   id="namedview14627"
   showgrid="false"
   fit-margin-top="0"
   fit-margin-left="0"
   fit-margin-right="0"
   fit-margin-bottom="0"
   inkscape:zoom="8.7176838"
   inkscape:cx="9.0499985"
   inkscape:cy="8.9500015"
   inkscape:window-x="-8"
   inkscape:window-y="-8"
   inkscape:window-maximized="1"
   inkscape:current-layer="Capa_1" />
<style
   type="text/css"
   id="style14621">
	.st0{fill:#222222;}
</style>
<g
   id="g14623"
   transform="translate(-39.3,-39.3)">
	<path
   class="st0"
   d="m 48.3,39.3 c -5,0 -9,4 -9,9 0,5 4,9 9,9 5,0 9,-4 9,-9 0,-4.9 -4,-9 -9,-9 z m -7.9,9 c 0,-1.2 0.2,-2.3 0.7,-3.2 l 3.8,10.4 c -2.7,-1.3 -4.5,-4 -4.5,-7.2 z m 7.9,8 C 47.5,56.3 46.8,56.2 46,56 l 2.4,-6.9 2.4,6.7 c 0,0 0,0.1 0.1,0.1 -0.7,0.2 -1.6,0.4 -2.6,0.4 z m 1.1,-11.7 c 0.5,0 0.9,-0.1 0.9,-0.1 0.4,-0.1 0.4,-0.7 -0.1,-0.7 0,0 -1.3,0.1 -2.1,0.1 -0.8,0 -2.1,-0.1 -2.1,-0.1 -0.4,0 -0.5,0.6 -0.1,0.7 0,0 0.4,0.1 0.8,0.1 l 1.2,3.4 -1.7,5.2 -2.9,-8.6 c 0.5,0 0.9,-0.1 0.9,-0.1 0.4,-0.1 0.4,-0.7 -0.1,-0.7 0,0 -1.3,0.1 -2.1,0.1 -0.2,0 -0.3,0 -0.5,0 1.4,-2.2 3.9,-3.6 6.7,-3.6 2.1,0 4,0.8 5.4,2.1 0,0 -0.1,0 -0.1,0 -0.8,0 -1.3,0.7 -1.3,1.4 0,0.7 0.4,1.2 0.8,1.9 0.3,0.5 0.7,1.2 0.7,2.2 0,0.7 -0.3,1.5 -0.6,2.6 l -0.8,2.7 -2.9,-8.6 z m 2.9,10.6 2.4,-7 c 0.5,-1.1 0.6,-2 0.6,-2.9 0,-0.3 0,-0.6 -0.1,-0.8 0.6,1.1 1,2.4 1,3.8 0.1,3 -1.5,5.5 -3.9,6.9 z"
   id="path14625"
   inkscape:connector-curvature="0"
   style="fill:#222222" />
</g>
</svg>