<svg width="450" height="20" viewBox="0 0 450 20" fill="none" xmlns="http://www.w3.org/2000/svg">
<line y1="6.5" x2="185" y2="6.5" stroke="#009A9F"/>
<line x1="265" y1="6.5" x2="450" y2="6.50002" stroke="#009A9F"/>
<path d="M233.226 0.366821C229.396 0.366821 226.372 3.47235 226.372 7.30264C226.372 11.1329 229.518 14.2385 233.348 14.2385C233.386 14.2385 233.444 14.2333 233.482 14.2326C231.968 15.4386 230.066 16.1653 227.984 16.1653C227.026 16.1653 226.255 16.942 226.255 17.8992C226.255 18.8565 226.871 19.6332 227.829 19.6332C234.628 19.6325 240 14.1014 240 7.30264C240 7.30134 240 7.30004 240 7.29809C240 3.46975 237.055 0.366821 233.226 0.366821Z" fill="#009A9F"/>
<path d="M216.981 0.366821C213.151 0.366821 210.121 3.47235 210.121 7.30264C210.121 11.1329 213.265 14.2385 217.096 14.2385C217.134 14.2385 217.19 14.2333 217.229 14.2326C215.714 15.4386 213.811 16.1653 211.729 16.1653C210.772 16.1653 210 16.942 210 17.8992C210 18.8565 210.626 19.6332 211.584 19.6332C218.383 19.6325 223.764 14.1014 223.764 7.30264C223.764 7.30134 223.764 7.30004 223.764 7.29809C223.764 3.46975 220.81 0.366821 216.981 0.366821Z" fill="#009A9F"/>
</svg>
