<svg width="450" height="20" viewBox="0 0 450 20" fill="none" xmlns="http://www.w3.org/2000/svg">
<line x1="450" y1="13.5" x2="265" y2="13.5" stroke="#009A9F"/>
<line x1="185" y1="13.5" x2="-4.37114e-08" y2="13.5" stroke="#009A9F"/>
<path d="M216.774 19.6332C220.604 19.6332 223.628 16.5276 223.628 12.6974C223.628 8.86708 220.482 5.76155 216.652 5.76155C216.614 5.76155 216.556 5.76674 216.518 5.76739C218.032 4.56142 219.934 3.83471 222.016 3.83471C222.974 3.83471 223.745 3.05801 223.745 2.10076C223.745 1.14351 223.129 0.366806 222.171 0.366806C215.372 0.367456 210 5.89857 210 12.6974C210 12.6987 210 12.7 210 12.7019C210 16.5302 212.945 19.6332 216.774 19.6332Z" fill="#009A9F"/>
<path d="M233.019 19.6332C236.849 19.6332 239.879 16.5276 239.879 12.6974C239.879 8.86708 236.735 5.76155 232.904 5.76155C232.866 5.76155 232.81 5.76674 232.771 5.76739C234.286 4.56142 236.189 3.83471 238.271 3.83471C239.228 3.83471 240 3.05801 240 2.10076C240 1.14351 239.374 0.366806 238.416 0.366806C231.617 0.367456 226.236 5.89857 226.236 12.6974C226.236 12.6987 226.236 12.7 226.236 12.7019C226.236 16.5302 229.19 19.6332 233.019 19.6332Z" fill="#009A9F"/>
</svg>
